<svg width="30" height="25" viewBox="0 0 30 25" fill="none" xmlns="http://www.w3.org/2000/svg">
<mask id="path-1-outside-1_461_1621" maskUnits="userSpaceOnUse" x="0" y="0.176468" width="30" height="24" fill="black">
<rect fill="white" y="0.176468" width="30" height="24"/>
<path fill-rule="evenodd" clip-rule="evenodd" d="M25.6815 22.1765C26.4326 22.1765 27.0414 21.5676 27.0414 20.8166L27.0414 18.0968C27.0414 12.8395 22.7795 8.57759 17.5222 8.57759L7.2064 8.57759L11.6844 4.09963L9.76119 2.17646L2.96176 8.97589L2.00017 9.93748L2.96176 10.8991L9.76119 17.6985L11.6844 15.7753L7.2064 11.2974L17.5222 11.2974C21.2774 11.2974 24.3216 14.3416 24.3216 18.0968L24.3216 20.8166C24.3216 21.5676 24.9305 22.1765 25.6815 22.1765Z"/>
</mask>
<path fill-rule="evenodd" clip-rule="evenodd" d="M25.6815 22.1765C26.4326 22.1765 27.0414 21.5676 27.0414 20.8166L27.0414 18.0968C27.0414 12.8395 22.7795 8.57759 17.5222 8.57759L7.2064 8.57759L11.6844 4.09963L9.76119 2.17646L2.96176 8.97589L2.00017 9.93748L2.96176 10.8991L9.76119 17.6985L11.6844 15.7753L7.2064 11.2974L17.5222 11.2974C21.2774 11.2974 24.3216 14.3416 24.3216 18.0968L24.3216 20.8166C24.3216 21.5676 24.9305 22.1765 25.6815 22.1765Z" fill="#EBC128"/>
<path d="M27.0414 20.8166L29.0414 20.8166L27.0414 20.8166ZM27.0414 18.0968L25.0414 18.0968L27.0414 18.0968ZM17.5222 8.57759L17.5222 10.5776L17.5222 8.57759ZM7.2064 8.57759L5.79219 7.16338C5.22019 7.73537 5.04908 8.59561 5.35864 9.34296C5.6682 10.0903 6.39748 10.5776 7.2064 10.5776L7.2064 8.57759ZM11.6844 4.09963L13.0986 5.51384C13.8796 4.73279 13.8796 3.46646 13.0986 2.68542L11.6844 4.09963ZM9.76119 2.17646L11.1754 0.762245C10.8003 0.387172 10.2916 0.176458 9.76119 0.176458C9.23076 0.176458 8.72205 0.387172 8.34698 0.762244L9.76119 2.17646ZM2.96176 8.97589L4.37597 10.3901L4.37597 10.3901L2.96176 8.97589ZM2.00017 9.93748L0.585958 8.52327C0.210886 8.89834 0.000171856 9.40705 0.000171902 9.93748C0.000171949 10.4679 0.210886 10.9766 0.585959 11.3517L2.00017 9.93748ZM2.96176 10.8991L4.37597 9.48485L4.37597 9.48485L2.96176 10.8991ZM9.76119 17.6985L8.34698 19.1127C9.12803 19.8938 10.3944 19.8938 11.1754 19.1127L9.76119 17.6985ZM11.6844 15.7753L13.0986 17.1895C13.4737 16.8145 13.6844 16.3058 13.6844 15.7753C13.6844 15.2449 13.4736 14.7362 13.0986 14.3611L11.6844 15.7753ZM7.2064 11.2974L7.2064 9.29737C6.39748 9.29737 5.6682 9.78465 5.35864 10.532C5.04908 11.2793 5.22019 12.1396 5.79219 12.7116L7.2064 11.2974ZM17.5222 11.2974L17.5222 13.2974L17.5222 11.2974ZM24.3216 18.0968L22.3216 18.0968L24.3216 18.0968ZM24.3216 20.8166L26.3216 20.8166L24.3216 20.8166ZM25.0414 20.8166C25.0414 20.463 25.328 20.1765 25.6815 20.1765L25.6815 24.1765C27.5372 24.1765 29.0414 22.6722 29.0414 20.8166L25.0414 20.8166ZM25.0414 18.0968L25.0414 20.8166L29.0414 20.8166L29.0414 18.0968L25.0414 18.0968ZM17.5222 10.5776C21.675 10.5776 25.0414 13.9441 25.0414 18.0968L29.0414 18.0968C29.0414 11.7349 23.8841 6.57759 17.5222 6.57759L17.5222 10.5776ZM7.2064 10.5776L17.5222 10.5776L17.5222 6.57759L7.2064 6.57759L7.2064 10.5776ZM10.2701 2.68542L5.79219 7.16338L8.62061 9.99181L13.0986 5.51384L10.2701 2.68542ZM8.34698 3.59067L10.2701 5.51384L13.0986 2.68542L11.1754 0.762245L8.34698 3.59067ZM4.37597 10.3901L11.1754 3.59067L8.34698 0.762244L1.54754 7.56168L4.37597 10.3901ZM3.41439 11.3517L4.37597 10.3901L1.54754 7.56168L0.585958 8.52327L3.41439 11.3517ZM4.37597 9.48485L3.41439 8.52327L0.585959 11.3517L1.54754 12.3133L4.37597 9.48485ZM11.1754 16.2843L4.37597 9.48485L1.54754 12.3133L8.34698 19.1127L11.1754 16.2843ZM10.2702 14.3611L8.34698 16.2843L11.1754 19.1127L13.0986 17.1895L10.2702 14.3611ZM5.79219 12.7116L10.2702 17.1895L13.0986 14.3611L8.62061 9.88315L5.79219 12.7116ZM17.5222 9.29736L7.2064 9.29737L7.2064 13.2974L17.5222 13.2974L17.5222 9.29736ZM26.3216 18.0968C26.3216 13.237 22.382 9.29736 17.5222 9.29736L17.5222 13.2974C20.1729 13.2974 22.3216 15.4461 22.3216 18.0968L26.3216 18.0968ZM26.3216 20.8166L26.3216 18.0968L22.3216 18.0968L22.3216 20.8166L26.3216 20.8166ZM25.6815 20.1765C26.0351 20.1765 26.3216 20.463 26.3216 20.8166L22.3216 20.8166C22.3216 22.6722 23.8259 24.1765 25.6815 24.1765L25.6815 20.1765Z" fill="#1A120F" mask="url(#path-1-outside-1_461_1621)"/>
</svg>
