<svg xmlns="http://www.w3.org/2000/svg" width="23" height="25" viewBox="0 0 23 25" fill="none">
    <mask id="path-1-outside-1_265_1605" maskUnits="userSpaceOnUse" x="0.702637" y="0.587082" width="22" height="25" fill="black">
        <rect fill="white" x="0.702637" y="0.587082" width="22" height="25"/>
        <path fill-rule="evenodd" clip-rule="evenodd" d="M11.5922 2.58708C10.9348 2.58708 10.3628 3.00866 9.2189 3.85182L7.70627 4.96676C7.52606 5.09959 7.43596 5.166 7.33922 5.22185C7.24249 5.2777 7.13992 5.32253 6.93479 5.41218L5.2129 6.16469C3.91075 6.73376 3.25967 7.0183 2.93095 7.58766C2.60224 8.15702 2.68136 8.86313 2.8396 10.2754L3.04885 12.1428C3.07378 12.3653 3.08624 12.4765 3.08624 12.5882C3.08624 12.6999 3.07378 12.8112 3.04885 13.0337L2.8396 14.9011C2.68136 16.3133 2.60224 17.0195 2.93095 17.5888C3.25967 18.1582 3.91075 18.4427 5.2129 19.0118L6.93479 19.7643L6.93483 19.7643C7.13993 19.854 7.24249 19.8988 7.33922 19.9546C7.43596 20.0105 7.52606 20.0769 7.70627 20.2097L9.2189 21.3247C10.3628 22.1678 10.9348 22.5894 11.5922 22.5894C12.2496 22.5894 12.8216 22.1678 13.9655 21.3247L15.4781 20.2097C15.6584 20.0769 15.7485 20.0105 15.8452 19.9546C15.9419 19.8988 16.0445 19.8539 16.2496 19.7643L16.2496 19.7643L17.9715 19.0118C19.2737 18.4427 19.9247 18.1582 20.2535 17.5888C20.5822 17.0195 20.5031 16.3133 20.3448 14.9011L20.1356 13.0337L20.1356 13.0336C20.1106 12.8112 20.0982 12.6999 20.0982 12.5882C20.0982 12.4765 20.1106 12.3653 20.1356 12.1429L20.1356 12.1428L20.3448 10.2754C20.5031 8.86313 20.5822 8.15702 20.2535 7.58766C19.9247 7.0183 19.2737 6.73376 17.9715 6.16469L16.2496 5.41218L16.2496 5.41217C16.0445 5.32253 15.9419 5.2777 15.8452 5.22185C15.7485 5.166 15.6584 5.09959 15.4781 4.96676L13.9655 3.85182C12.8216 3.00866 12.2496 2.58708 11.5922 2.58708ZM11.592 16.4012C13.6979 16.4012 15.405 14.6941 15.405 12.5882C15.405 10.4824 13.6979 8.77524 11.592 8.77524C9.48619 8.77524 7.77905 10.4824 7.77905 12.5882C7.77905 14.6941 9.48619 16.4012 11.592 16.4012Z"/>
    </mask>
    <path fill-rule="evenodd" clip-rule="evenodd" d="M11.5922 2.58708C10.9348 2.58708 10.3628 3.00866 9.2189 3.85182L7.70627 4.96676C7.52606 5.09959 7.43596 5.166 7.33922 5.22185C7.24249 5.2777 7.13992 5.32253 6.93479 5.41218L5.2129 6.16469C3.91075 6.73376 3.25967 7.0183 2.93095 7.58766C2.60224 8.15702 2.68136 8.86313 2.8396 10.2754L3.04885 12.1428C3.07378 12.3653 3.08624 12.4765 3.08624 12.5882C3.08624 12.6999 3.07378 12.8112 3.04885 13.0337L2.8396 14.9011C2.68136 16.3133 2.60224 17.0195 2.93095 17.5888C3.25967 18.1582 3.91075 18.4427 5.2129 19.0118L6.93479 19.7643L6.93483 19.7643C7.13993 19.854 7.24249 19.8988 7.33922 19.9546C7.43596 20.0105 7.52606 20.0769 7.70627 20.2097L9.2189 21.3247C10.3628 22.1678 10.9348 22.5894 11.5922 22.5894C12.2496 22.5894 12.8216 22.1678 13.9655 21.3247L15.4781 20.2097C15.6584 20.0769 15.7485 20.0105 15.8452 19.9546C15.9419 19.8988 16.0445 19.8539 16.2496 19.7643L16.2496 19.7643L17.9715 19.0118C19.2737 18.4427 19.9247 18.1582 20.2535 17.5888C20.5822 17.0195 20.5031 16.3133 20.3448 14.9011L20.1356 13.0337L20.1356 13.0336C20.1106 12.8112 20.0982 12.6999 20.0982 12.5882C20.0982 12.4765 20.1106 12.3653 20.1356 12.1429L20.1356 12.1428L20.3448 10.2754C20.5031 8.86313 20.5822 8.15702 20.2535 7.58766C19.9247 7.0183 19.2737 6.73376 17.9715 6.16469L16.2496 5.41218L16.2496 5.41217C16.0445 5.32253 15.9419 5.2777 15.8452 5.22185C15.7485 5.166 15.6584 5.09959 15.4781 4.96676L13.9655 3.85182C12.8216 3.00866 12.2496 2.58708 11.5922 2.58708ZM11.592 16.4012C13.6979 16.4012 15.405 14.6941 15.405 12.5882C15.405 10.4824 13.6979 8.77524 11.592 8.77524C9.48619 8.77524 7.77905 10.4824 7.77905 12.5882C7.77905 14.6941 9.48619 16.4012 11.592 16.4012Z" fill="#E22929"/>
    <path d="M9.2189 3.85182L10.4056 5.46175L10.4056 5.46175L9.2189 3.85182ZM7.70627 4.96676L6.51962 3.35684L6.51962 3.35684L7.70627 4.96676ZM7.33922 5.22185L6.33922 3.4898L6.33922 3.4898L7.33922 5.22185ZM6.93479 5.41218L6.13388 3.57954L6.13388 3.57954L6.93479 5.41218ZM5.2129 6.16469L6.01381 7.99732L6.01381 7.99732L5.2129 6.16469ZM2.93095 7.58766L4.66301 8.58766L4.66301 8.58766L2.93095 7.58766ZM2.8396 10.2754L0.852036 10.4981L2.8396 10.2754ZM3.04885 12.1428L1.06129 12.3655L1.06129 12.3655L3.04885 12.1428ZM3.04885 13.0337L5.03641 13.2564L5.03641 13.2564L3.04885 13.0337ZM2.8396 14.9011L0.852036 14.6784L0.852036 14.6784L2.8396 14.9011ZM2.93095 17.5888L4.66301 16.5888L4.663 16.5888L2.93095 17.5888ZM5.2129 19.0118L6.01381 17.1792L6.01381 17.1792L5.2129 19.0118ZM6.93479 19.7643L6.13388 21.5969L6.16275 21.6095L6.192 21.6212L6.93479 19.7643ZM6.93483 19.7643L7.73577 17.9317L7.70688 17.9191L7.67761 17.9074L6.93483 19.7643ZM7.33922 19.9546L8.33923 18.2226L8.3392 18.2226L7.33922 19.9546ZM7.70627 20.2097L6.51961 21.8196L6.51962 21.8196L7.70627 20.2097ZM9.2189 21.3247L10.4056 19.7147L10.4056 19.7147L9.2189 21.3247ZM13.9655 21.3247L12.7789 19.7147L12.7789 19.7147L13.9655 21.3247ZM15.4781 20.2097L16.6648 21.8196L16.6648 21.8196L15.4781 20.2097ZM15.8452 19.9546L14.8452 18.2225L14.8452 18.2226L15.8452 19.9546ZM16.2496 19.7643L17.0505 21.5969L17.0978 21.5763L17.144 21.5532L16.2496 19.7643ZM16.2496 19.7643L15.4487 17.9317L15.4014 17.9523L15.3552 17.9754L16.2496 19.7643ZM17.9715 19.0118L17.1706 17.1792L17.1706 17.1792L17.9715 19.0118ZM20.2535 17.5888L18.5214 16.5888L18.5214 16.5888L20.2535 17.5888ZM20.3448 14.9011L18.3573 15.1238L18.3573 15.1238L20.3448 14.9011ZM20.1356 13.0337L22.1232 12.8109L22.1219 12.8L20.1356 13.0337ZM20.1356 13.0336L18.148 13.2563L18.1493 13.2673L20.1356 13.0336ZM20.1356 12.1429L18.1492 11.9092L18.148 11.9202L20.1356 12.1429ZM20.1356 12.1428L22.1219 12.3765L22.1231 12.3655L20.1356 12.1428ZM20.3448 10.2754L18.3573 10.0527L18.3573 10.0527L20.3448 10.2754ZM20.2535 7.58766L18.5214 8.58766L18.5214 8.58766L20.2535 7.58766ZM17.9715 6.16469L17.1706 7.99732L17.1706 7.99732L17.9715 6.16469ZM16.2496 5.41218L15.4289 7.23602L15.4388 7.24047L15.4487 7.24481L16.2496 5.41218ZM16.2496 5.41217L17.0703 3.58833L17.0605 3.58388L17.0505 3.57954L16.2496 5.41217ZM15.8452 5.22185L14.8452 6.9539L14.8452 6.95391L15.8452 5.22185ZM15.4781 4.96676L16.6648 3.35684L16.6648 3.35684L15.4781 4.96676ZM13.9655 3.85182L15.1522 2.24189L15.1522 2.24189L13.9655 3.85182ZM10.4056 5.46175C11.0152 5.0124 11.3371 4.77897 11.5817 4.63891C11.7811 4.52474 11.7393 4.58708 11.5922 4.58708V0.587082C10.7877 0.587082 10.1311 0.860209 9.59423 1.16762C9.10255 1.44914 8.56653 1.84808 8.03225 2.2419L10.4056 5.46175ZM8.89292 6.57669L10.4056 5.46175L8.03225 2.2419L6.51962 3.35684L8.89292 6.57669ZM8.33922 6.9539C8.55467 6.82952 8.74654 6.68458 8.89292 6.57669L6.51962 3.35684C6.42281 3.42819 6.37572 3.46276 6.34092 3.48724C6.31372 3.50637 6.31936 3.50127 6.33922 3.4898L8.33922 6.9539ZM7.7357 7.24481C7.90232 7.17199 8.12378 7.07829 8.33922 6.9539L6.33922 3.4898C6.35909 3.47833 6.36632 3.47599 6.33615 3.48999C6.29755 3.50789 6.24408 3.53138 6.13388 3.57954L7.7357 7.24481ZM6.01381 7.99732L7.7357 7.24481L6.13388 3.57954L4.41199 4.33205L6.01381 7.99732ZM4.66301 8.58766C4.58946 8.71505 4.51456 8.7201 4.71313 8.6045C4.95674 8.46268 5.31985 8.3006 6.01381 7.99732L4.41199 4.33205C3.8038 4.59785 3.19029 4.86258 2.70065 5.14763C2.16597 5.45891 1.60117 5.89091 1.1989 6.58766L4.66301 8.58766ZM4.82716 10.0527C4.74283 9.30003 4.70164 8.90453 4.70265 8.62265C4.70348 8.39288 4.73655 8.46027 4.66301 8.58766L1.1989 6.58766C0.796635 7.28441 0.704909 7.98953 0.702679 8.60822C0.700636 9.17479 0.778127 9.83847 0.852036 10.4981L4.82716 10.0527ZM5.03641 11.9201L4.82716 10.0527L0.852036 10.4981L1.06129 12.3655L5.03641 11.9201ZM5.08624 12.5882C5.08624 12.3395 5.05666 12.1008 5.03641 11.9201L1.06129 12.3655C1.07468 12.485 1.08107 12.5431 1.08487 12.5855C1.08783 12.6186 1.08624 12.6112 1.08624 12.5882H5.08624ZM5.03641 13.2564C5.05666 13.0756 5.08624 12.837 5.08624 12.5882H1.08624C1.08624 12.5653 1.08783 12.5579 1.08487 12.591C1.08107 12.6334 1.07468 12.6914 1.06129 12.8109L5.03641 13.2564ZM4.82716 15.1238L5.03641 13.2564L1.06129 12.8109L0.852036 14.6784L4.82716 15.1238ZM4.663 16.5888C4.73655 16.7162 4.70348 16.7836 4.70265 16.5538C4.70164 16.2719 4.74283 15.8764 4.82716 15.1238L0.852036 14.6784C0.778127 15.338 0.700636 16.0017 0.702679 16.5682C0.704909 17.1869 0.796635 17.8921 1.1989 18.5888L4.663 16.5888ZM6.01381 17.1792C5.31985 16.8759 4.95674 16.7138 4.71313 16.572C4.51456 16.4564 4.58946 16.4614 4.66301 16.5888L1.1989 18.5888C1.60117 19.2856 2.16597 19.7176 2.70065 20.0288C3.1903 20.3139 3.8038 20.5786 4.41199 20.8444L6.01381 17.1792ZM7.7357 17.9317L6.01381 17.1792L4.41199 20.8444L6.13388 21.5969L7.7357 17.9317ZM7.67761 17.9074L7.67757 17.9073L6.192 21.6212L6.19205 21.6213L7.67761 17.9074ZM8.3392 18.2226C8.12379 18.0982 7.90235 18.0045 7.73577 17.9317L6.13388 21.5969C6.24408 21.6451 6.29755 21.6686 6.33616 21.6865C6.36634 21.7005 6.3591 21.6981 6.33924 21.6867L8.3392 18.2226ZM8.89292 18.5998C8.74655 18.4919 8.55467 18.347 8.33923 18.2226L6.33922 21.6867C6.31935 21.6752 6.31371 21.6701 6.34091 21.6892C6.37572 21.7137 6.4228 21.7483 6.51961 21.8196L8.89292 18.5998ZM10.4056 19.7147L8.89292 18.5998L6.51962 21.8196L8.03225 22.9346L10.4056 19.7147ZM11.5922 20.5894C11.7393 20.5894 11.7811 20.6517 11.5817 20.5376C11.3371 20.3975 11.0152 20.1641 10.4056 19.7147L8.03225 22.9346C8.56653 23.3284 9.10255 23.7273 9.59423 24.0088C10.1311 24.3163 10.7877 24.5894 11.5922 24.5894V20.5894ZM12.7789 19.7147C12.1692 20.1641 11.8473 20.3975 11.6027 20.5376C11.4033 20.6517 11.4451 20.5894 11.5922 20.5894V24.5894C12.3967 24.5894 13.0533 24.3163 13.5902 24.0089C14.0819 23.7273 14.6179 23.3284 15.1522 22.9346L12.7789 19.7147ZM14.2915 18.5998L12.7789 19.7147L15.1522 22.9346L16.6648 21.8196L14.2915 18.5998ZM14.8452 18.2226C14.6297 18.347 14.4379 18.4919 14.2915 18.5998L16.6648 21.8196C16.7616 21.7483 16.8087 21.7137 16.8435 21.6892C16.8707 21.6701 16.8651 21.6752 16.8452 21.6867L14.8452 18.2226ZM15.4487 17.9317C15.282 18.0045 15.0606 18.0982 14.8452 18.2225L16.8452 21.6867C16.8253 21.6981 16.8181 21.7005 16.8483 21.6865C16.8868 21.6686 16.9403 21.6451 17.0505 21.5969L15.4487 17.9317ZM15.3552 17.9754L15.3552 17.9755L17.144 21.5532L17.1441 21.5531L15.3552 17.9754ZM17.1706 17.1792L15.4487 17.9317L17.0505 21.5969L18.7724 20.8444L17.1706 17.1792ZM18.5214 16.5888C18.595 16.4614 18.6699 16.4564 18.4713 16.572C18.2277 16.7138 17.8646 16.8759 17.1706 17.1792L18.7724 20.8444C19.3806 20.5786 19.9941 20.3139 20.4838 20.0288C21.0184 19.7176 21.5832 19.2856 21.9855 18.5888L18.5214 16.5888ZM18.3573 15.1238C18.4416 15.8764 18.4828 16.2719 18.4818 16.5538C18.4809 16.7836 18.4479 16.7162 18.5214 16.5888L21.9855 18.5888C22.3878 17.8921 22.4795 17.1869 22.4817 16.5682C22.4838 16.0017 22.4063 15.338 22.3324 14.6784L18.3573 15.1238ZM18.148 13.2564L18.3573 15.1238L22.3324 14.6784L22.1231 12.8109L18.148 13.2564ZM18.1493 13.2673L18.1493 13.2673L22.1219 12.8L22.1219 12.7999L18.1493 13.2673ZM18.0982 12.5882C18.0982 12.837 18.1278 13.0756 18.148 13.2563L22.1231 12.8109C22.1097 12.6914 22.1033 12.6334 22.0995 12.591C22.0966 12.5579 22.0982 12.5653 22.0982 12.5882H18.0982ZM18.148 11.9202C18.1278 12.1008 18.0982 12.3395 18.0982 12.5882H22.0982C22.0982 12.6112 22.0966 12.6186 22.0995 12.5855C22.1033 12.5431 22.1097 12.4851 22.1231 12.3655L18.148 11.9202ZM18.1493 11.9091L18.1493 11.9092L22.1219 12.3766L22.1219 12.3765L18.1493 11.9091ZM18.3573 10.0527L18.148 11.9201L22.1231 12.3655L22.3324 10.4981L18.3573 10.0527ZM18.5214 8.58766C18.4479 8.46027 18.4809 8.39288 18.4818 8.62265C18.4828 8.90453 18.4416 9.30003 18.3573 10.0527L22.3324 10.4981C22.4063 9.83847 22.4838 9.17479 22.4817 8.60822C22.4795 7.98953 22.3878 7.28441 21.9855 6.58766L18.5214 8.58766ZM17.1706 7.99732C17.8646 8.3006 18.2277 8.46268 18.4713 8.6045C18.6699 8.7201 18.595 8.71505 18.5214 8.58766L21.9855 6.58766C21.5832 5.89091 21.0184 5.45891 20.4838 5.14763C19.9941 4.86258 19.3806 4.59785 18.7724 4.33205L17.1706 7.99732ZM15.4487 7.24481L17.1706 7.99732L18.7724 4.33205L17.0505 3.57954L15.4487 7.24481ZM15.4289 7.23601L15.4289 7.23602L17.0704 3.58833L17.0703 3.58833L15.4289 7.23601ZM14.8452 6.95391C15.0606 7.07829 15.2821 7.17198 15.4487 7.2448L17.0505 3.57954C16.9403 3.53138 16.8869 3.50789 16.8483 3.48998C16.8181 3.47599 16.8253 3.47833 16.8452 3.4898L14.8452 6.95391ZM14.2915 6.57668C14.4379 6.68458 14.6297 6.82952 14.8452 6.9539L16.8452 3.4898C16.8651 3.50127 16.8707 3.50637 16.8435 3.48724C16.8087 3.46276 16.7616 3.42819 16.6648 3.35684L14.2915 6.57668ZM12.7789 5.46174L14.2915 6.57669L16.6648 3.35684L15.1522 2.24189L12.7789 5.46174ZM11.5922 4.58708C11.4451 4.58708 11.4033 4.52474 11.6027 4.63891C11.8473 4.77898 12.1692 5.0124 12.7789 5.46175L15.1522 2.24189C14.6179 1.84808 14.0819 1.44914 13.5902 1.16762C13.0533 0.860209 12.3967 0.587082 11.5922 0.587082V4.58708ZM13.405 12.5882C13.405 13.5895 12.5933 14.4012 11.592 14.4012V18.4012C14.8025 18.4012 17.405 15.7987 17.405 12.5882H13.405ZM11.592 10.7752C12.5933 10.7752 13.405 11.5869 13.405 12.5882H17.405C17.405 9.37781 14.8025 6.77524 11.592 6.77524V10.7752ZM9.77905 12.5882C9.77905 11.5869 10.5908 10.7752 11.592 10.7752V6.77524C8.38162 6.77524 5.77905 9.37781 5.77905 12.5882H9.77905ZM11.592 14.4012C10.5908 14.4012 9.77905 13.5895 9.77905 12.5882H5.77905C5.77905 15.7987 8.38162 18.4012 11.592 18.4012V14.4012Z" fill="#1A120F" mask="url(#path-1-outside-1_265_1605)"/>
</svg>