<svg xmlns="http://www.w3.org/2000/svg" width="26" height="26" viewBox="0 0 26 26" fill="none">
    <path d="M13.1089 7.00021C12.0798 5.50767 10.3582 4.52941 8.40816 4.52941C5.25689 4.52941 2.70228 7.08402 2.70228 10.2353C2.70228 13.3866 5.25689 15.9412 8.40816 15.9412C9.54958 15.9412 10.6127 15.606 11.5045 15.0288L11.998 15.3188C12.6713 15.7145 13.4559 15.9412 14.2905 15.9412C16.792 15.9412 18.8199 13.9133 18.8199 11.4118C18.8199 8.91024 16.792 6.88235 14.2905 6.88235C14.0844 6.88235 13.881 6.89619 13.6812 6.9231L13.1089 7.00021ZM22.3494 3.17647C22.3494 1.97444 21.3749 1 20.1729 1C18.9709 1 17.9964 1.97444 17.9964 3.17647V3.35294H17.82C16.6179 3.35294 15.6435 4.32738 15.6435 5.52941C15.6435 6.73144 16.6179 7.70588 17.82 7.70588H17.9964V7.88235C17.9964 9.08439 18.9709 10.0588 20.1729 10.0588C21.3749 10.0588 22.3494 9.08438 22.3494 7.88235V7.70588H22.5258C23.7279 7.70588 24.7023 6.73144 24.7023 5.52941C24.7023 4.32738 23.7279 3.35294 22.5258 3.35294H22.3494V3.17647ZM15.5634 23H17.6638C18.916 23 20.124 21.8261 19.6098 20.3765C19.0706 18.8564 17.6442 16.2941 14.2906 16.2941C14.1155 16.2941 13.9443 16.3013 13.7769 16.3154C13.0826 16.3738 12.625 16.8652 12.4858 17.4097C12.4818 17.4254 12.478 17.4412 12.4745 17.4569C11.4666 16.7509 10.1353 16.2941 8.40816 16.2941C6.03682 16.2941 4.4116 17.1553 3.34519 18.3402C2.31025 19.4902 1.87229 20.8648 1.68239 21.8144C1.40865 23.1832 2.54206 24.1765 3.70228 24.1765H13.114C13.939 24.1765 14.7504 23.6743 15.052 22.892C15.2047 22.9606 15.3765 23 15.5634 23Z" fill="#EBC128" stroke="#1A120F" stroke-width="2"/>
</svg>