<svg xmlns="http://www.w3.org/2000/svg" width="18" height="25" viewBox="0 0 18 25" fill="none">
    <mask id="path-1-outside-1_265_1613" maskUnits="userSpaceOnUse" x="0.0141602" y="0.586823" width="18" height="25" fill="black">
        <rect fill="white" x="0.0141602" y="0.586823" width="18" height="25"/>
        <path fill-rule="evenodd" clip-rule="evenodd" d="M12.1676 3.55109L8.94559 3.04477C5.725 2.53868 4.11471 2.28563 3.06444 3.18375C2.01416 4.08187 2.01416 5.71193 2.01416 8.97203V11.5886H7.66641L5.09974 8.3803L6.66147 7.13091L10.5279 11.9639L11.0277 12.5886L10.5279 13.2133L6.66147 18.0464L5.09974 16.797L7.66641 13.5886H2.01416V16.2044C2.01416 19.4646 2.01416 21.0946 3.06443 21.9927C4.11471 22.8909 5.725 22.6378 8.94559 22.1317L12.1676 21.6254C13.7804 21.372 14.5867 21.2452 15.0667 20.684C15.5467 20.1227 15.5467 19.3064 15.5467 17.6739V7.5026C15.5467 5.87008 15.5467 5.05382 15.0667 4.49253C14.5867 3.93124 13.7804 3.80452 12.1676 3.55109Z"/>
    </mask>
    <path fill-rule="evenodd" clip-rule="evenodd" d="M12.1676 3.55109L8.94559 3.04477C5.725 2.53868 4.11471 2.28563 3.06444 3.18375C2.01416 4.08187 2.01416 5.71193 2.01416 8.97203V11.5886H7.66641L5.09974 8.3803L6.66147 7.13091L10.5279 11.9639L11.0277 12.5886L10.5279 13.2133L6.66147 18.0464L5.09974 16.797L7.66641 13.5886H2.01416V16.2044C2.01416 19.4646 2.01416 21.0946 3.06443 21.9927C4.11471 22.8909 5.725 22.6378 8.94559 22.1317L12.1676 21.6254C13.7804 21.372 14.5867 21.2452 15.0667 20.684C15.5467 20.1227 15.5467 19.3064 15.5467 17.6739V7.5026C15.5467 5.87008 15.5467 5.05382 15.0667 4.49253C14.5867 3.93124 13.7804 3.80452 12.1676 3.55109Z" fill="#E22929"/>
    <path d="M8.94559 3.04477L9.25607 1.06902L8.94559 3.04477ZM12.1676 3.55109L12.4781 1.57534L12.1676 3.55109ZM3.06444 3.18375L4.36425 4.70378L4.36425 4.70378L3.06444 3.18375ZM2.01416 11.5886H0.0141602V13.5886H2.01416V11.5886ZM7.66641 11.5886V13.5886H11.8277L9.22815 10.3393L7.66641 11.5886ZM5.09974 8.3803L3.85035 6.81856L2.28861 8.06795L3.538 9.62969L5.09974 8.3803ZM6.66147 7.13091L8.22321 5.88151L6.97382 4.31978L5.41208 5.56917L6.66147 7.13091ZM10.5279 11.9639L8.96617 13.2133L8.96617 13.2133L10.5279 11.9639ZM11.0277 12.5886L12.5894 13.838L13.5889 12.5886L12.5894 11.3393L11.0277 12.5886ZM10.5279 13.2133L8.96617 11.9639L8.96617 11.9639L10.5279 13.2133ZM6.66147 18.0464L5.41208 19.6081L6.97382 20.8575L8.22321 19.2958L6.66147 18.0464ZM5.09974 16.797L3.538 15.5476L2.28861 17.1093L3.85035 18.3587L5.09974 16.797ZM7.66641 13.5886L9.22815 14.838L11.8277 11.5886H7.66641V13.5886ZM2.01416 13.5886V11.5886H0.0141602V13.5886H2.01416ZM3.06443 21.9927L1.76462 23.5128L1.76462 23.5128L3.06443 21.9927ZM8.94559 22.1317L9.25606 24.1075L9.25606 24.1075L8.94559 22.1317ZM12.1676 21.6254L11.8572 19.6496L11.8572 19.6496L12.1676 21.6254ZM15.0667 20.684L16.5867 21.9838L16.5867 21.9838L15.0667 20.684ZM15.0667 4.49253L16.5867 3.19271L16.5867 3.19271L15.0667 4.49253ZM8.63511 5.02053L11.8572 5.52685L12.4781 1.57534L9.25607 1.06902L8.63511 5.02053ZM4.36425 4.70378C4.38395 4.68694 4.41073 4.66566 4.49717 4.64222C4.60507 4.61294 4.80424 4.58202 5.1607 4.58745C5.92241 4.59905 6.96468 4.75803 8.63511 5.02053L9.25607 1.06902C7.70591 0.825423 6.33274 0.604834 5.22159 0.587916C4.05426 0.570142 2.81685 0.763933 1.76462 1.66373L4.36425 4.70378ZM4.01416 8.97203C4.01416 7.2811 4.01891 6.22679 4.1257 5.47251C4.17567 5.11953 4.23713 4.92758 4.2828 4.82553C4.31938 4.74378 4.34455 4.72062 4.36425 4.70378L1.76462 1.66373C0.712383 2.56352 0.328849 3.75585 0.165193 4.91179C0.00941321 6.01209 0.0141602 7.40286 0.0141602 8.97203H4.01416ZM4.01416 11.5886V8.97203H0.0141602V11.5886H4.01416ZM7.66641 9.58864H2.01416V13.5886H7.66641V9.58864ZM3.538 9.62969L6.10468 12.838L9.22815 10.3393L6.66147 7.13091L3.538 9.62969ZM5.41208 5.56917L3.85035 6.81856L6.34913 9.94203L7.91086 8.69264L5.41208 5.56917ZM12.0896 10.7146L8.22321 5.88151L5.09974 8.3803L8.96617 13.2133L12.0896 10.7146ZM12.5894 11.3393L12.0896 10.7146L8.96617 13.2133L9.46593 13.838L12.5894 11.3393ZM12.0896 14.4627L12.5894 13.838L9.46593 11.3393L8.96617 11.9639L12.0896 14.4627ZM8.22321 19.2958L12.0896 14.4627L8.96617 11.9639L5.09974 16.797L8.22321 19.2958ZM3.85035 18.3587L5.41208 19.6081L7.91086 16.4846L6.34913 15.2353L3.85035 18.3587ZM6.10468 12.3393L3.538 15.5476L6.66147 18.0464L9.22815 14.838L6.10468 12.3393ZM2.01416 15.5886H7.66641V11.5886H2.01416V15.5886ZM4.01416 16.2044V13.5886H0.0141602V16.2044H4.01416ZM4.36425 20.4727C4.34456 20.4559 4.31938 20.4327 4.2828 20.351C4.23713 20.2489 4.17567 20.057 4.1257 19.704C4.01891 18.9497 4.01416 17.8954 4.01416 16.2044H0.0141602C0.0141602 17.7736 0.00941323 19.1644 0.165192 20.2647C0.328849 21.4206 0.712382 22.613 1.76462 23.5128L4.36425 20.4727ZM8.63511 20.156C6.96468 20.4185 5.92241 20.5774 5.1607 20.589C4.80424 20.5945 4.60507 20.5635 4.49717 20.5343C4.41073 20.5108 4.38395 20.4895 4.36425 20.4727L1.76462 23.5128C2.81685 24.4126 4.05426 24.6063 5.22159 24.5886C6.33274 24.5717 7.70591 24.3511 9.25606 24.1075L8.63511 20.156ZM11.8572 19.6496L8.63511 20.156L9.25606 24.1075L12.4781 23.6011L11.8572 19.6496ZM13.5467 19.3841C13.6573 19.2548 13.7489 19.2732 13.488 19.3484C13.1732 19.4391 12.7146 19.5149 11.8572 19.6496L12.4781 23.6011C13.2334 23.4825 13.9843 23.3682 14.5959 23.1919C15.2614 23 15.9961 22.6745 16.5867 21.9838L13.5467 19.3841ZM13.5467 17.6739C13.5467 18.5418 13.543 19.0067 13.5022 19.3317C13.4684 19.6011 13.436 19.5135 13.5467 19.3841L16.5867 21.9838C17.1773 21.2931 17.3849 20.5167 17.4711 19.8296C17.5504 19.198 17.5467 18.4385 17.5467 17.6739H13.5467ZM13.5467 7.5026V17.6739H17.5467V7.5026H13.5467ZM13.5467 5.79234C13.436 5.66296 13.4684 5.57534 13.5022 5.84478C13.543 6.16982 13.5467 6.63468 13.5467 7.5026H17.5467C17.5467 6.738 17.5504 5.97847 17.4711 5.34692C17.3849 4.65978 17.1773 3.88339 16.5867 3.19271L13.5467 5.79234ZM11.8572 5.52685C12.7146 5.66158 13.1732 5.73737 13.488 5.82811C13.7489 5.90333 13.6573 5.92173 13.5467 5.79235L16.5867 3.19271C15.9961 2.50203 15.2614 2.17644 14.5959 1.98461C13.9843 1.80832 13.2334 1.69403 12.4781 1.57534L11.8572 5.52685Z" fill="#1A120F" mask="url(#path-1-outside-1_265_1613)"/>
</svg>