<svg xmlns="http://www.w3.org/2000/svg" width="19" height="25" viewBox="0 0 19 25" fill="none">
    <mask id="path-1-outside-1_265_1609" maskUnits="userSpaceOnUse" x="0.481445" y="0.586823" width="18" height="25" fill="black">
        <rect fill="white" x="0.481445" y="0.586823" width="18" height="25"/>
        <path fill-rule="evenodd" clip-rule="evenodd" d="M12.6349 3.55109L9.41287 3.04477C6.19229 2.53868 4.58199 2.28563 3.53172 3.18375C2.48145 4.08187 2.48145 5.71193 2.48145 8.97203V11.5886H8.1337L5.56702 8.3803L7.12876 7.13091L10.9952 11.9639L11.4949 12.5886L10.9952 13.2133L7.12876 18.0464L5.56702 16.797L8.1337 13.5886H2.48145V16.2044C2.48145 19.4646 2.48145 21.0946 3.53172 21.9927C4.58199 22.8909 6.19229 22.6378 9.41287 22.1317L12.6349 21.6254C14.2476 21.372 15.054 21.2452 15.534 20.684C16.014 20.1227 16.014 19.3064 16.014 17.6739V7.5026C16.014 5.87008 16.014 5.05382 15.534 4.49253C15.054 3.93124 14.2476 3.80452 12.6349 3.55109Z"/>
    </mask>
    <path fill-rule="evenodd" clip-rule="evenodd" d="M12.6349 3.55109L9.41287 3.04477C6.19229 2.53868 4.58199 2.28563 3.53172 3.18375C2.48145 4.08187 2.48145 5.71193 2.48145 8.97203V11.5886H8.1337L5.56702 8.3803L7.12876 7.13091L10.9952 11.9639L11.4949 12.5886L10.9952 13.2133L7.12876 18.0464L5.56702 16.797L8.1337 13.5886H2.48145V16.2044C2.48145 19.4646 2.48145 21.0946 3.53172 21.9927C4.58199 22.8909 6.19229 22.6378 9.41287 22.1317L12.6349 21.6254C14.2476 21.372 15.054 21.2452 15.534 20.684C16.014 20.1227 16.014 19.3064 16.014 17.6739V7.5026C16.014 5.87008 16.014 5.05382 15.534 4.49253C15.054 3.93124 14.2476 3.80452 12.6349 3.55109Z" fill="#EBC128"/>
    <path d="M9.41287 3.04477L9.72335 1.06902L9.41287 3.04477ZM12.6349 3.55109L12.9454 1.57534L12.6349 3.55109ZM3.53172 3.18375L4.83154 4.70378L4.83154 4.70378L3.53172 3.18375ZM2.48145 11.5886H0.481445V13.5886H2.48145V11.5886ZM8.1337 11.5886V13.5886H12.2949L9.69544 10.3393L8.1337 11.5886ZM5.56702 8.3803L4.31763 6.81856L2.75589 8.06795L4.00528 9.62969L5.56702 8.3803ZM7.12876 7.13091L8.6905 5.88151L7.44111 4.31978L5.87937 5.56917L7.12876 7.13091ZM10.9952 11.9639L9.43345 13.2133L9.43346 13.2133L10.9952 11.9639ZM11.4949 12.5886L13.0567 13.838L14.0562 12.5886L13.0567 11.3393L11.4949 12.5886ZM10.9952 13.2133L9.43346 11.9639L9.43345 11.9639L10.9952 13.2133ZM7.12876 18.0464L5.87937 19.6081L7.44111 20.8575L8.6905 19.2958L7.12876 18.0464ZM5.56702 16.797L4.00528 15.5476L2.75589 17.1093L4.31763 18.3587L5.56702 16.797ZM8.1337 13.5886L9.69544 14.838L12.2949 11.5886H8.1337V13.5886ZM2.48145 13.5886V11.5886H0.481445V13.5886H2.48145ZM3.53172 21.9927L2.2319 23.5128L2.2319 23.5128L3.53172 21.9927ZM9.41287 22.1317L9.72335 24.1075L9.72335 24.1075L9.41287 22.1317ZM12.6349 21.6254L12.3244 19.6496L12.3244 19.6496L12.6349 21.6254ZM15.534 20.684L17.054 21.9838L17.054 21.9838L15.534 20.684ZM15.534 4.49253L17.054 3.19271L17.054 3.19271L15.534 4.49253ZM9.1024 5.02053L12.3244 5.52685L12.9454 1.57534L9.72335 1.06902L9.1024 5.02053ZM4.83154 4.70378C4.85123 4.68694 4.87801 4.66566 4.96445 4.64222C5.07236 4.61294 5.27152 4.58202 5.62798 4.58745C6.38969 4.59905 7.43196 4.75803 9.1024 5.02053L9.72335 1.06902C8.1732 0.825423 6.80003 0.604834 5.68888 0.587916C4.52154 0.570142 3.28414 0.763933 2.2319 1.66373L4.83154 4.70378ZM4.48145 8.97203C4.48145 7.2811 4.48619 6.22679 4.59298 5.47251C4.64296 5.11953 4.70442 4.92758 4.75009 4.82553C4.78667 4.74378 4.81184 4.72062 4.83154 4.70378L2.2319 1.66373C1.17967 2.56352 0.796134 3.75585 0.632478 4.91179C0.476698 6.01209 0.481445 7.40286 0.481445 8.97203H4.48145ZM4.48145 11.5886V8.97203H0.481445V11.5886H4.48145ZM8.1337 9.58864H2.48145V13.5886H8.1337V9.58864ZM4.00528 9.62969L6.57196 12.838L9.69544 10.3393L7.12876 7.13091L4.00528 9.62969ZM5.87937 5.56917L4.31763 6.81856L6.81641 9.94203L8.37815 8.69264L5.87937 5.56917ZM12.5569 10.7146L8.6905 5.88151L5.56702 8.3803L9.43345 13.2133L12.5569 10.7146ZM13.0567 11.3393L12.5569 10.7146L9.43346 13.2133L9.93321 13.838L13.0567 11.3393ZM12.5569 14.4627L13.0567 13.838L9.93321 11.3393L9.43346 11.9639L12.5569 14.4627ZM8.6905 19.2958L12.5569 14.4627L9.43345 11.9639L5.56702 16.797L8.6905 19.2958ZM4.31763 18.3587L5.87937 19.6081L8.37815 16.4846L6.81641 15.2353L4.31763 18.3587ZM6.57196 12.3393L4.00528 15.5476L7.12876 18.0464L9.69544 14.838L6.57196 12.3393ZM2.48145 15.5886H8.1337V11.5886H2.48145V15.5886ZM4.48145 16.2044V13.5886H0.481445V16.2044H4.48145ZM4.83154 20.4727C4.81184 20.4559 4.78667 20.4327 4.75009 20.351C4.70442 20.2489 4.64296 20.057 4.59298 19.704C4.48619 18.9497 4.48145 17.8954 4.48145 16.2044H0.481445C0.481445 17.7736 0.476698 19.1644 0.632478 20.2647C0.796134 21.4206 1.17967 22.613 2.2319 23.5128L4.83154 20.4727ZM9.1024 20.156C7.43196 20.4185 6.38969 20.5774 5.62798 20.589C5.27152 20.5945 5.07236 20.5635 4.96445 20.5343C4.87801 20.5108 4.85123 20.4895 4.83154 20.4727L2.2319 23.5128C3.28414 24.4126 4.52154 24.6063 5.68888 24.5886C6.80003 24.5717 8.1732 24.3511 9.72335 24.1075L9.1024 20.156ZM12.3244 19.6496L9.1024 20.156L9.72335 24.1075L12.9454 23.6011L12.3244 19.6496ZM14.014 19.3841C14.1246 19.2548 14.2162 19.2732 13.9553 19.3484C13.6405 19.4391 13.1818 19.5149 12.3244 19.6496L12.9454 23.6011C13.7007 23.4825 14.4516 23.3682 15.0632 23.1919C15.7286 23 16.4634 22.6745 17.054 21.9838L14.014 19.3841ZM14.014 17.6739C14.014 18.5418 14.0103 19.0067 13.9695 19.3317C13.9357 19.6011 13.9033 19.5135 14.014 19.3841L17.054 21.9838C17.6446 21.2931 17.8522 20.5167 17.9384 19.8296C18.0176 19.198 18.014 18.4385 18.014 17.6739H14.014ZM14.014 7.5026V17.6739H18.014V7.5026H14.014ZM14.014 5.79234C13.9033 5.66296 13.9357 5.57534 13.9695 5.84478C14.0103 6.16982 14.014 6.63468 14.014 7.5026H18.014C18.014 6.738 18.0176 5.97847 17.9384 5.34692C17.8522 4.65978 17.6446 3.88339 17.054 3.19271L14.014 5.79234ZM12.3244 5.52685C13.1818 5.66158 13.6405 5.73737 13.9553 5.82811C14.2162 5.90333 14.1246 5.92173 14.014 5.79235L17.054 3.19271C16.4634 2.50203 15.7286 2.17644 15.0632 1.98461C14.4516 1.80832 13.7007 1.69403 12.9454 1.57534L12.3244 5.52685Z" fill="#1A120F" mask="url(#path-1-outside-1_265_1609)"/>
</svg>