<svg xmlns="http://www.w3.org/2000/svg" width="19" height="25" viewBox="0 0 19 25" fill="none">
    <mask id="path-1-outside-1_265_1624" maskUnits="userSpaceOnUse" x="0.546875" y="0.586823" width="18" height="25" fill="black">
        <rect fill="white" x="0.546875" y="0.586823" width="18" height="25"/>
        <path fill-rule="evenodd" clip-rule="evenodd" d="M5.92592 3.55109L9.14796 3.04477C12.3686 2.53868 13.9788 2.28563 15.0291 3.18375C16.0794 4.08187 16.0794 5.71193 16.0794 8.97203V11.5882H10.4271L12.9938 8.37989L11.4321 7.1305L7.56565 11.9635L7.06589 12.5882L7.56565 13.2129L11.4321 18.046L12.9938 16.7966L10.4271 13.5882H16.0794V16.2044C16.0794 19.4646 16.0794 21.0946 15.0291 21.9927C13.9788 22.8909 12.3686 22.6378 9.14797 22.1317L5.92593 21.6254C4.31319 21.372 3.50683 21.2452 3.02685 20.684C2.54688 20.1227 2.54688 19.3064 2.54688 17.6739V7.5026C2.54688 5.87008 2.54688 5.05382 3.02685 4.49253C3.50683 3.93124 4.31319 3.80452 5.92592 3.55109Z"/>
    </mask>
    <path fill-rule="evenodd" clip-rule="evenodd" d="M5.92592 3.55109L9.14796 3.04477C12.3686 2.53868 13.9788 2.28563 15.0291 3.18375C16.0794 4.08187 16.0794 5.71193 16.0794 8.97203V11.5882H10.4271L12.9938 8.37989L11.4321 7.1305L7.56565 11.9635L7.06589 12.5882L7.56565 13.2129L11.4321 18.046L12.9938 16.7966L10.4271 13.5882H16.0794V16.2044C16.0794 19.4646 16.0794 21.0946 15.0291 21.9927C13.9788 22.8909 12.3686 22.6378 9.14797 22.1317L5.92593 21.6254C4.31319 21.372 3.50683 21.2452 3.02685 20.684C2.54688 20.1227 2.54688 19.3064 2.54688 17.6739V7.5026C2.54688 5.87008 2.54688 5.05382 3.02685 4.49253C3.50683 3.93124 4.31319 3.80452 5.92592 3.55109Z" fill="#28B4EB"/>
    <path d="M9.14796 3.04477L8.83749 1.06902L8.83749 1.06902L9.14796 3.04477ZM5.92592 3.55109L6.2364 5.52685L6.2364 5.52685L5.92592 3.55109ZM15.0291 3.18375L13.7293 4.70378L13.7293 4.70378L15.0291 3.18375ZM16.0794 11.5882V13.5882H18.0794V11.5882H16.0794ZM10.4271 11.5882L8.8654 10.3389L6.26589 13.5882H10.4271V11.5882ZM12.9938 8.37989L14.5556 9.62928L15.8049 8.06755L14.2432 6.81816L12.9938 8.37989ZM11.4321 7.1305L12.6815 5.56877L11.1197 4.31938L9.87034 5.88111L11.4321 7.1305ZM7.56565 11.9635L6.00391 10.7142L6.00391 10.7142L7.56565 11.9635ZM7.06589 12.5882L5.50415 11.3389L4.50464 12.5882L5.50415 13.8376L7.06589 12.5882ZM7.56565 13.2129L6.00391 14.4623L6.00391 14.4623L7.56565 13.2129ZM11.4321 18.046L9.87034 19.2954L11.1197 20.8571L12.6815 19.6077L11.4321 18.046ZM12.9938 16.7966L14.2432 18.3583L15.8049 17.1089L14.5556 15.5472L12.9938 16.7966ZM10.4271 13.5882V11.5882H6.26589L8.8654 14.8376L10.4271 13.5882ZM16.0794 13.5882H18.0794V11.5882H16.0794V13.5882ZM15.0291 21.9927L16.3289 23.5128L16.3289 23.5128L15.0291 21.9927ZM9.14797 22.1317L8.83749 24.1075L8.83749 24.1075L9.14797 22.1317ZM5.92593 21.6254L6.2364 19.6496L6.2364 19.6496L5.92593 21.6254ZM3.02685 20.684L1.50682 21.9838L1.50683 21.9838L3.02685 20.684ZM8.83749 1.06902L5.61545 1.57534L6.2364 5.52685L9.45844 5.02053L8.83749 1.06902ZM16.3289 1.66373C15.2767 0.763933 14.0393 0.570142 12.872 0.587916C11.7608 0.604834 10.3876 0.825423 8.83749 1.06902L9.45844 5.02053C11.1289 4.75803 12.1711 4.59905 12.9329 4.58745C13.2893 4.58202 13.4885 4.61294 13.5964 4.64222C13.6828 4.66566 13.7096 4.68694 13.7293 4.70378L16.3289 1.66373ZM18.0794 8.97203C18.0794 7.40286 18.0841 6.01209 17.9284 4.91179C17.7647 3.75585 17.3812 2.56352 16.3289 1.66373L13.7293 4.70378C13.749 4.72062 13.7742 4.74378 13.8108 4.82553C13.8564 4.92758 13.9179 5.11953 13.9679 5.47251C14.0746 6.22679 14.0794 7.2811 14.0794 8.97203H18.0794ZM18.0794 11.5882V8.97203H14.0794V11.5882H18.0794ZM10.4271 13.5882H16.0794V9.58824H10.4271V13.5882ZM11.4321 7.1305L8.8654 10.3389L11.9889 12.8376L14.5556 9.62928L11.4321 7.1305ZM10.1827 8.69224L11.7444 9.94163L14.2432 6.81816L12.6815 5.56877L10.1827 8.69224ZM9.12738 13.2129L12.9938 8.37989L9.87034 5.88111L6.00391 10.7142L9.12738 13.2129ZM8.62763 13.8376L9.12738 13.2129L6.00391 10.7142L5.50415 11.3389L8.62763 13.8376ZM9.12738 11.9635L8.62763 11.3389L5.50415 13.8376L6.00391 14.4623L9.12738 11.9635ZM12.9938 16.7966L9.12738 11.9635L6.00391 14.4623L9.87034 19.2954L12.9938 16.7966ZM11.7444 15.2349L10.1827 16.4842L12.6815 19.6077L14.2432 18.3583L11.7444 15.2349ZM8.8654 14.8376L11.4321 18.046L14.5556 15.5472L11.9889 12.3389L8.8654 14.8376ZM16.0794 11.5882H10.4271V15.5882H16.0794V11.5882ZM18.0794 16.2044V13.5882H14.0794V16.2044H18.0794ZM16.3289 23.5128C17.3812 22.613 17.7647 21.4206 17.9284 20.2647C18.0841 19.1644 18.0794 17.7736 18.0794 16.2044H14.0794C14.0794 17.8954 14.0746 18.9497 13.9679 19.704C13.9179 20.057 13.8564 20.2489 13.8108 20.351C13.7742 20.4327 13.749 20.4559 13.7293 20.4727L16.3289 23.5128ZM8.83749 24.1075C10.3876 24.3511 11.7608 24.5717 12.872 24.5886C14.0393 24.6063 15.2767 24.4126 16.3289 23.5128L13.7293 20.4727C13.7096 20.4895 13.6828 20.5108 13.5964 20.5343C13.4885 20.5635 13.2893 20.5945 12.9329 20.589C12.1711 20.5774 11.1289 20.4185 9.45844 20.156L8.83749 24.1075ZM5.61545 23.6011L8.83749 24.1075L9.45844 20.156L6.2364 19.6496L5.61545 23.6011ZM1.50683 21.9838C2.09744 22.6745 2.8322 23 3.49763 23.1919C4.10922 23.3682 4.86012 23.4825 5.61545 23.6011L6.2364 19.6496C5.379 19.5149 4.92035 19.4391 4.60558 19.3484C4.34465 19.2732 4.43623 19.2548 4.54687 19.3841L1.50683 21.9838ZM0.546875 17.6739C0.546875 18.4385 0.543203 19.198 0.622424 19.8296C0.708619 20.5167 0.916208 21.2931 1.50682 21.9838L4.54688 19.3841C4.65752 19.5135 4.62512 19.6011 4.59132 19.3317C4.55055 19.0067 4.54688 18.5418 4.54688 17.6739H0.546875ZM0.546875 7.5026V17.6739H4.54688V7.5026H0.546875ZM1.50683 3.19271C0.916208 3.88339 0.708619 4.65978 0.622424 5.34692C0.543203 5.97847 0.546875 6.738 0.546875 7.5026H4.54688C4.54688 6.63468 4.55055 6.16982 4.59132 5.84478C4.62512 5.57534 4.65752 5.66296 4.54687 5.79234L1.50683 3.19271ZM5.61545 1.57534C4.86012 1.69403 4.10922 1.80832 3.49763 1.98461C2.83219 2.17644 2.09744 2.50203 1.50683 3.19271L4.54687 5.79234C4.43623 5.92173 4.34465 5.90333 4.60558 5.82811C4.92035 5.73737 5.379 5.66158 6.2364 5.52685L5.61545 1.57534Z" fill="#1A120F" mask="url(#path-1-outside-1_265_1624)"/>
</svg>