<svg xmlns="http://www.w3.org/2000/svg" width="24" height="24" viewBox="0 0 24 24" fill="none">
    <path d="M20.7882 2.99041C18.3139 0.516075 14.3022 0.516076 11.8279 2.99041L9.47492 5.34335C8.62495 6.19331 8.62495 7.57138 9.47492 8.42134C10.0984 9.04484 11.0061 9.21097 11.781 8.91973L9.52188 11.1789C9.81312 10.4039 9.647 9.49626 9.0235 8.87276C8.17354 8.0228 6.79547 8.0228 5.94551 8.87276L3.59257 11.2257C1.11823 13.7 1.11823 17.7117 3.59257 20.1861C6.0669 22.6604 10.0786 22.6604 12.5529 20.1861L14.9059 17.8331C15.7558 16.9831 15.7558 15.6051 14.9059 14.7551C14.2825 14.1317 13.375 13.9655 12.6001 14.2566L14.8588 11.998C14.5677 12.7728 14.7339 13.6803 15.3573 14.3037C16.2072 15.1537 17.5853 15.1537 18.4353 14.3037L20.7882 11.9508C23.2625 9.47642 23.2625 5.46474 20.7882 2.99041ZM16.0824 7.69629C15.4589 7.07279 14.5513 6.90667 13.7763 7.19791L14.9059 6.0684C15.6803 5.294 16.9358 5.294 17.7102 6.0684C18.4846 6.8428 18.4846 8.09836 17.7102 8.87276L16.581 10.002C16.872 9.22717 16.7058 8.31969 16.0824 7.69629ZM6.67056 14.3037L7.80018 13.1741C7.50894 13.949 7.67507 14.8567 8.29856 15.4802C8.92196 16.1036 9.82944 16.2697 10.6043 15.9787L9.47492 17.1081C8.70052 17.8825 7.44496 17.8825 6.67056 17.1081C5.89616 16.3337 5.89616 15.0781 6.67056 14.3037Z" fill="#E22929" stroke="#1A120F" stroke-width="2" stroke-linecap="round" stroke-linejoin="round"/>
</svg>