<svg xmlns="http://www.w3.org/2000/svg" width="29" height="28" viewBox="0 0 29 28" fill="none">
    <mask id="path-1-outside-1_265_1602" maskUnits="userSpaceOnUse" x="0.496094" y="0.588242" width="29" height="23" fill="black">
        <rect fill="white" x="0.496094" y="0.588242" width="29" height="23"/>
        <path fill-rule="evenodd" clip-rule="evenodd" d="M24.8903 7.17963L21.299 3.58835L19.606 5.2813L21.1538 6.82901H20.7161L20.6624 6.82901H20.6623C19.4199 6.82899 18.4097 6.82898 17.5825 6.90192C16.7231 6.97769 15.9675 7.138 15.2535 7.51182C14.7201 7.7911 14.232 8.14921 13.8056 8.57393C14.094 9.04519 14.3207 9.533 14.5157 10.0221C14.6513 10.3621 14.7825 10.7325 14.9131 11.128C15.0946 10.7507 15.2685 10.5018 15.461 10.3047C15.7248 10.0347 16.0296 9.80798 16.364 9.63288C16.6933 9.46045 17.1033 9.34764 17.7928 9.28685C18.5025 9.22427 19.4071 9.22319 20.7161 9.22319H21.1538L19.606 10.7709L21.299 12.4638L24.8903 8.87257L25.7367 8.0261L24.8903 7.17963ZM11.5373 19.4492C11.2489 18.9779 11.0221 18.4901 10.8271 18.001C10.6916 17.661 10.5604 17.2906 10.4297 16.8951C10.2483 17.2724 10.0744 17.5213 9.88185 17.7184C9.61803 17.9884 9.31329 18.2151 8.97885 18.3902C8.64952 18.5627 8.23949 18.6755 7.55005 18.7363C6.8403 18.7989 5.93573 18.7999 4.62678 18.7999H2.49614V21.1941H4.62678H4.68048C5.92289 21.1941 6.93313 21.1941 7.76033 21.1212C8.61971 21.0454 9.37535 20.8851 10.0894 20.5113C10.6228 20.232 11.1109 19.8739 11.5373 19.4492Z"/>
    </mask>
    <path fill-rule="evenodd" clip-rule="evenodd" d="M24.8903 7.17963L21.299 3.58835L19.606 5.2813L21.1538 6.82901H20.7161L20.6624 6.82901H20.6623C19.4199 6.82899 18.4097 6.82898 17.5825 6.90192C16.7231 6.97769 15.9675 7.138 15.2535 7.51182C14.7201 7.7911 14.232 8.14921 13.8056 8.57393C14.094 9.04519 14.3207 9.533 14.5157 10.0221C14.6513 10.3621 14.7825 10.7325 14.9131 11.128C15.0946 10.7507 15.2685 10.5018 15.461 10.3047C15.7248 10.0347 16.0296 9.80798 16.364 9.63288C16.6933 9.46045 17.1033 9.34764 17.7928 9.28685C18.5025 9.22427 19.4071 9.22319 20.7161 9.22319H21.1538L19.606 10.7709L21.299 12.4638L24.8903 8.87257L25.7367 8.0261L24.8903 7.17963ZM11.5373 19.4492C11.2489 18.9779 11.0221 18.4901 10.8271 18.001C10.6916 17.661 10.5604 17.2906 10.4297 16.8951C10.2483 17.2724 10.0744 17.5213 9.88185 17.7184C9.61803 17.9884 9.31329 18.2151 8.97885 18.3902C8.64952 18.5627 8.23949 18.6755 7.55005 18.7363C6.8403 18.7989 5.93573 18.7999 4.62678 18.7999H2.49614V21.1941H4.62678H4.68048C5.92289 21.1941 6.93313 21.1941 7.76033 21.1212C8.61971 21.0454 9.37535 20.8851 10.0894 20.5113C10.6228 20.232 11.1109 19.8739 11.5373 19.4492Z" fill="#E22929"/>
    <path d="M21.299 3.58835L22.7132 2.17414L21.299 0.759925L19.8848 2.17414L21.299 3.58835ZM19.606 5.2813L18.1918 3.86708L16.7776 5.2813L18.1918 6.69551L19.606 5.2813ZM21.1538 6.82901V8.82901H25.9822L22.568 5.41479L21.1538 6.82901ZM20.7161 6.82901L20.716 8.82901H20.7161V6.82901ZM20.6624 6.82901L20.6624 4.82901H20.6624V6.82901ZM20.6623 6.82901L20.6623 8.82901H20.6623V6.82901ZM17.5825 6.90192L17.7582 8.89419L17.7582 8.89419L17.5825 6.90192ZM15.2535 7.51182L16.1812 9.28366L16.1812 9.28366L15.2535 7.51182ZM13.8056 8.57393L12.3941 7.15698L11.2756 8.2712L12.0997 9.61786L13.8056 8.57393ZM14.5157 10.0221L12.6579 10.7628L12.6579 10.7628L14.5157 10.0221ZM14.9131 11.128L13.014 11.7553L14.5681 16.46L16.7155 11.9948L14.9131 11.128ZM15.461 10.3047L14.0304 8.90706L14.0304 8.90706L15.461 10.3047ZM16.364 9.63288L17.2917 11.4047L17.2917 11.4047L16.364 9.63288ZM17.7928 9.28685L17.9685 11.2791L17.9685 11.2791L17.7928 9.28685ZM21.1538 9.22319L22.568 10.6374L25.9822 7.22319H21.1538V9.22319ZM19.606 10.7709L18.1918 9.35669L16.7776 10.7709L18.1918 12.1851L19.606 10.7709ZM21.299 12.4638L19.8848 13.8781L21.299 15.2923L22.7132 13.8781L21.299 12.4638ZM24.8903 8.87257L23.4761 7.45836L23.4761 7.45836L24.8903 8.87257ZM25.7367 8.0261L27.151 9.44031L28.5652 8.0261L27.151 6.61189L25.7367 8.0261ZM11.5373 19.4492L12.9487 20.8661L14.0673 19.7519L13.2432 18.4052L11.5373 19.4492ZM10.8271 18.001L12.6849 17.2603L12.6849 17.2603L10.8271 18.001ZM10.4297 16.8951L12.3288 16.2678L10.7748 11.5631L8.62735 16.0283L10.4297 16.8951ZM9.88185 17.7184L11.3124 19.1161L11.3124 19.1161L9.88185 17.7184ZM8.97885 18.3902L8.05118 16.6184L8.05118 16.6184L8.97885 18.3902ZM7.55005 18.7363L7.37439 16.744L7.37439 16.744L7.55005 18.7363ZM2.49614 18.7999V16.7999H0.496139V18.7999H2.49614ZM2.49614 21.1941H0.496139V23.1941H2.49614V21.1941ZM4.68048 21.1941L4.68051 19.1941H4.68048V21.1941ZM7.76033 21.1212L7.93599 23.1135L7.93599 23.1135L7.76033 21.1212ZM10.0894 20.5113L11.017 22.2831L11.017 22.2831L10.0894 20.5113ZM19.8848 5.00257L23.4761 8.59384L26.3045 5.76541L22.7132 2.17414L19.8848 5.00257ZM21.0203 6.69551L22.7132 5.00257L19.8848 2.17414L18.1918 3.86708L21.0203 6.69551ZM22.568 5.41479L21.0203 3.86708L18.1918 6.69551L19.7395 8.24322L22.568 5.41479ZM20.7161 8.82901H21.1538V4.82901H20.7161V8.82901ZM20.6623 8.82901L20.716 8.82901L20.7161 4.82901L20.6624 4.82901L20.6623 8.82901ZM20.6623 8.82901H20.6624V4.82901H20.6623V8.82901ZM17.7582 8.89419C18.4781 8.83071 19.3881 8.82899 20.6623 8.82901L20.6624 4.82901C19.4518 4.82899 18.3413 4.82725 17.4069 4.90964L17.7582 8.89419ZM16.1812 9.28366C16.5739 9.07802 17.0409 8.95743 17.7582 8.89419L17.4069 4.90964C16.4053 4.99795 15.3611 5.19797 14.3258 5.73997L16.1812 9.28366ZM15.2171 9.99087C15.501 9.70807 15.826 9.46962 16.1812 9.28366L14.3258 5.73997C13.6141 6.11258 12.963 6.59034 12.3941 7.15698L15.2171 9.99087ZM12.0997 9.61786C12.3115 9.96403 12.4904 10.3425 12.6579 10.7628L16.3735 9.28135C16.1511 8.7235 15.8765 8.12634 15.5115 7.52999L12.0997 9.61786ZM12.6579 10.7628C12.7738 11.0533 12.8911 11.3831 13.014 11.7553L16.8122 10.5007C16.6739 10.0819 16.5288 9.67095 16.3735 9.28135L12.6579 10.7628ZM14.0304 8.90706C13.6529 9.29343 13.3635 9.73548 13.1107 10.2612L16.7155 11.9948C16.7728 11.8757 16.8152 11.8055 16.842 11.7657C16.8668 11.7289 16.8824 11.7118 16.8915 11.7024L14.0304 8.90706ZM15.4363 7.86103C14.9156 8.13365 14.4412 8.48666 14.0304 8.90706L16.8915 11.7024C17.0084 11.5828 17.1435 11.4823 17.2917 11.4047L15.4363 7.86103ZM17.6171 7.29458C16.786 7.36785 16.0872 7.52028 15.4363 7.86104L17.2917 11.4047C17.2995 11.4006 17.4207 11.3274 17.9685 11.2791L17.6171 7.29458ZM20.7161 7.22319C19.4429 7.22319 18.4351 7.22245 17.6171 7.29458L17.9685 11.2791C18.57 11.2261 19.3713 11.2232 20.7161 11.2232V7.22319ZM21.1538 7.22319H20.7161V11.2232H21.1538V7.22319ZM21.0203 12.1851L22.568 10.6374L19.7395 7.80898L18.1918 9.35669L21.0203 12.1851ZM22.7132 11.0496L21.0203 9.35669L18.1918 12.1851L19.8848 13.8781L22.7132 11.0496ZM23.4761 7.45836L19.8848 11.0496L22.7132 13.8781L26.3045 10.2868L23.4761 7.45836ZM24.3225 6.61189L23.4761 7.45836L26.3045 10.2868L27.151 9.44031L24.3225 6.61189ZM23.4761 8.59384L24.3225 9.44031L27.151 6.61189L26.3045 5.76541L23.4761 8.59384ZM13.2432 18.4052C13.0314 18.0591 12.8525 17.6806 12.6849 17.2603L8.96935 18.7417C9.19177 19.2996 9.4664 19.8968 9.83134 20.4931L13.2432 18.4052ZM12.6849 17.2603C12.5691 16.9698 12.4517 16.64 12.3288 16.2678L8.53066 17.5224C8.66899 17.9412 8.81401 18.3521 8.96935 18.7417L12.6849 17.2603ZM11.3124 19.1161C11.6899 18.7297 11.9793 18.2876 12.2321 17.7619L8.62735 16.0283C8.57005 16.1474 8.52767 16.2176 8.50085 16.2575C8.47608 16.2943 8.46049 16.3113 8.45129 16.3207L11.3124 19.1161ZM9.90651 20.1621C10.4272 19.8895 10.9017 19.5365 11.3124 19.1161L8.4513 16.3207C8.3344 16.4403 8.19937 16.5408 8.05118 16.6184L9.90651 20.1621ZM7.72571 20.7285C8.55681 20.6553 9.25567 20.5028 9.90652 20.1621L8.05118 16.6184C8.04336 16.6225 7.92218 16.6957 7.37439 16.744L7.72571 20.7285ZM4.62678 20.7999C5.89993 20.7999 6.90773 20.8007 7.72571 20.7285L7.37439 16.744C6.77287 16.797 5.97154 16.7999 4.62678 16.7999V20.7999ZM2.49614 20.7999H4.62678V16.7999H2.49614V20.7999ZM4.49614 21.1941V18.7999H0.496139V21.1941H4.49614ZM4.62678 19.1941H2.49614V23.1941H4.62678V19.1941ZM4.68048 19.1941H4.62678V23.1941H4.68048V19.1941ZM7.58467 19.1289C6.86475 19.1924 5.95478 19.1941 4.68051 19.1941L4.68046 23.1941C5.89101 23.1941 7.00151 23.1959 7.93599 23.1135L7.58467 19.1289ZM9.16168 18.7395C8.76891 18.9451 8.30192 19.0657 7.58467 19.1289L7.93599 23.1135C8.93751 23.0252 9.98179 22.8252 11.017 22.2831L9.16168 18.7395ZM10.1258 18.0322C9.84189 18.315 9.51688 18.5535 9.16168 18.7395L11.017 22.2831C11.7287 21.9105 12.3799 21.4328 12.9487 20.8661L10.1258 18.0322Z" fill="#1A120F" mask="url(#path-1-outside-1_265_1602)"/>
    <path d="M17.4946 22.1173C17.88 22.1513 18.2998 22.1702 18.7528 22.1808L18.1918 22.7418L18.8989 23.4489L20.5918 25.1418L21.2989 25.849L22.0061 25.1418L26.4438 20.7041L27.1509 19.997L26.4438 19.2899L22.0061 14.8521L21.2989 14.145L20.5918 14.8521L18.8989 16.5451L18.1918 17.2522L18.7243 17.7847C18.4048 17.7759 18.1286 17.762 17.8806 17.7401C17.262 17.6856 16.9964 17.5926 16.8278 17.5043C16.5865 17.378 16.3666 17.2143 16.1762 17.0195C16.0432 16.8834 15.8778 16.6557 15.6478 16.0789C15.4041 15.4675 15.1571 14.6511 14.7758 13.3802L14.7604 13.3287L14.7604 13.3287L14.7488 13.2903C14.4013 12.1318 14.1005 11.1291 13.7766 10.3167C13.4307 9.4491 12.9995 8.63887 12.3096 7.93272L11.6259 8.60068L12.3096 7.93272C11.7964 7.40749 11.2037 6.96646 10.5531 6.62587L10.0893 7.51179L10.5531 6.62587C9.67853 6.16795 8.77856 5.98779 7.84811 5.90575C6.97688 5.82893 5.93001 5.82896 4.72049 5.82898L4.68044 5.82898H4.68043L2.49609 5.82898L1.49609 5.82898V6.82898V9.22316V10.2232H2.49609H4.62673C5.95359 10.2232 6.80654 10.2251 7.46217 10.283C8.08079 10.3375 8.34639 10.4305 8.51497 10.5188C8.75628 10.6451 8.97617 10.8087 9.16653 11.0036C9.2995 11.1397 9.46492 11.3673 9.69492 11.9442L10.5525 11.6022L9.69492 11.9442C9.93868 12.5556 10.1857 13.372 10.5669 14.6428C10.5669 14.6429 10.5669 14.6429 10.5669 14.6429L10.5824 14.6943L11.5402 14.407L10.5824 14.6943L10.5939 14.7327C10.9414 15.8912 11.2422 16.8939 11.5661 17.7063C11.9121 18.574 12.3432 19.3842 13.0332 20.0903C13.5463 20.6156 14.1391 21.0566 14.7896 21.3972C15.6642 21.8551 16.5642 22.0353 17.4946 22.1173Z" fill="#E22929" stroke="#1A120F" stroke-width="2"/>
</svg>