<svg width="81" height="77" viewBox="0 0 81 77" fill="none" xmlns="http://www.w3.org/2000/svg">
<g id="&#240;&#159;&#166;&#134; emoji &#34;exploding head&#34;">
<path id="Vector" d="M66.359 37.9177C71.119 35.7992 80.5 31.7807 80.5 31.7807C80.5 31.7807 71.7016 28.166 67.0872 26.1733C69.0932 24.538 78.7059 19.8707 78.7059 19.8707L64.0419 21.0822L72.1319 1.5324C72.1319 1.5324 59.3944 11.2047 54.449 12.4427C54.4689 10.1719 54.5152 4.16067 54.5152 4.16067C54.5152 4.16067 50.0068 9.09943 47.7691 10.7611C45.1673 6.90148 40.1955 0.989535 40.1955 0.989535C40.1955 0.989535 35.7532 6.42482 33.3037 10.1719C31.2911 8.54333 25.8956 0.896851 25.8956 0.896851C25.8956 0.896851 27.1402 10.2116 27.0343 12.6413C21.8704 11.4033 12.3305 7.10009 12.3305 7.10009C12.3305 7.10009 16.4616 14.9386 17.9909 18.9571C15.1905 18.9372 5.81612 18.4275 2.46624 18.2222C5.17395 20.2745 16.4815 28.444 16.4815 28.444L0.5 31.5423C0.5 31.5423 11.8671 34.2898 16.4815 36.2825C15.356 37.1961 12.4232 39.5463 10.0664 41.4265H70.5761C69.0468 40.215 67.6367 39.0498 66.359 37.9177Z" fill="#F15A24"/>
<path id="Vector_2" d="M30.093 27.8746H51.0596V41.4331H30.093V27.8746Z" fill="url(#paint0_linear_113_473)"/>
<path id="Vector_3" d="M77.6599 34.1838C77.7857 33.8528 77.8585 33.5019 77.8585 33.1312C77.8585 31.4761 76.5146 30.1322 74.8595 30.1322C73.4891 30.1322 72.3438 31.059 71.9863 32.3169C70.8344 32.734 70.0068 33.8263 70.0068 35.1239C70.0068 36.779 71.3508 38.1229 73.0058 38.1229C73.1978 38.1229 73.3832 38.1031 73.5686 38.0634C73.979 38.2752 74.4358 38.4076 74.9324 38.4076C76.5874 38.4076 77.9314 37.0637 77.9314 35.4086C77.9314 34.9783 77.8254 34.5612 77.6599 34.1838Z" fill="#FFEA5C"/>
<path id="Vector_4" d="M66.5248 2.0421C65.0882 2.58496 64.3599 4.1937 64.9094 5.63031C65.2338 6.48433 65.9289 7.07354 66.7432 7.31188C67.3192 8.69552 68.8816 9.38404 70.2917 8.85441C71.7283 8.31154 72.4566 6.70281 71.9071 5.2662C71.5827 4.41217 70.8876 3.82296 70.0733 3.58463C69.4973 2.20099 67.9349 1.50585 66.5248 2.0421Z" fill="#5C5CFF"/>
<path id="Vector_5" d="M10.9869 30.4235C11.0134 30.2845 11.0266 30.1388 11.0266 29.9932C11.0266 28.7353 10.0071 27.7092 8.74259 27.7092C7.48473 27.7092 6.45858 28.7287 6.45858 29.9932C6.45858 30.3374 6.53803 30.6552 6.67043 30.9465C5.34637 31.0127 4.26063 32.0653 4.18119 33.4225C4.09513 34.8724 5.20734 36.117 6.65719 36.203C7.55094 36.256 8.36524 35.8522 8.88162 35.1968C9.2325 35.4086 9.64296 35.541 10.0799 35.5675C11.5297 35.6536 12.7744 34.5413 12.8604 33.0915C12.9333 31.8535 12.1322 30.7611 10.9869 30.4235Z" fill="#45F9FF"/>
<path id="Vector_6" d="M7.97471 12.0984C9.80287 12.0984 11.2849 10.7646 11.2849 9.11928C11.2849 7.47395 9.80287 6.14014 7.97471 6.14014C6.14656 6.14014 4.66455 7.47395 4.66455 9.11928C4.66455 10.7646 6.14656 12.0984 7.97471 12.0984Z" fill="#4BFF17"/>
<path id="Vector_7" d="M73.1251 17.2821C74.9533 17.2821 76.4353 15.9483 76.4353 14.303C76.4353 12.6577 74.9533 11.3239 73.1251 11.3239C71.297 11.3239 69.8149 12.6577 69.8149 14.303C69.8149 15.9483 71.297 17.2821 73.1251 17.2821Z" fill="#FF17C8"/>
<path id="Vector_8" d="M64.1612 18.8181C63.5919 18.5003 63.4263 17.7456 63.6581 17.1365C64.0089 16.2229 64.2274 15.2497 64.2804 14.2434C64.5849 8.43077 59.4939 3.66413 52.9398 3.73034C50.6293 3.7502 48.4777 4.38575 46.6571 5.445C45.141 2.4791 41.8904 0.440035 38.1235 0.479757C34.2175 0.5261 30.9206 2.79687 29.5568 5.96139C28.5703 5.64361 27.5243 5.47148 26.4452 5.4781C21.1357 5.52444 17.2959 8.64262 17.6799 14.4619C17.7461 15.4483 18.5273 17.3086 18.5273 17.3086C18.5273 17.3086 16.9318 17.6992 15.621 19.9104C14.5551 21.7045 14.4426 24.5976 15.3694 26.5043C16.8193 29.49 20.8444 30.8935 23.8368 29.4569C24.2605 29.2517 24.7438 28.9935 25.1807 29.1722C25.3992 29.2649 26.3128 32.6148 34.5353 34.3229C39.2754 35.3093 44.8365 31.8336 45.1476 31.827C45.5051 31.8204 45.8229 32.0388 46.1208 32.2375C46.1208 32.2375 48.3188 34.7598 53.2377 33.5814C57.8785 32.4758 58.3287 29.3245 58.7259 29.1987C59.0437 29.0994 64.4856 30.8075 66.7829 25.5973C67.7891 23.2669 66.0745 19.8839 64.1612 18.8181Z" fill="#D2EDF7"/>
<path id="Vector_9" d="M17.6272 13.8264C17.6669 14.6539 17.8589 16.8717 18.8718 17.494C19.5537 17.9111 20.1627 18.1097 20.699 18.1759C21.7384 18.3017 22.3673 17.0174 21.6656 16.2428C20.8976 15.402 20.0701 13.9588 19.7523 11.5423C19.2955 8.13288 21.9767 6.41821 21.9767 6.41821C21.9767 6.41821 17.369 8.28514 17.6272 13.8264Z" fill="#92CBEB"/>
<path id="Vector_10" d="M66.7563 25.6105C67.4183 24.1143 67.1933 22.0024 65.9884 20.6519C65.9884 20.6519 66.7232 22.5652 65.7964 24.4652C64.8563 26.3917 62.8636 28.1924 60.7848 27.6959C59.4872 27.3848 60.7583 25.253 58.9311 22.115C59.0238 25.0743 58.9642 31.7807 50.2783 32.3368C48.6894 32.4361 44.8828 31.0657 44.6577 28.7618C44.1545 23.7436 48.9212 24.4387 49.6031 24.5446C51.2383 24.7896 53.0258 24.0812 53.2972 22.7903C53.5421 21.6185 52.9728 21.155 52.4366 20.6916C50.9006 19.3808 48.4842 19.6257 46.7762 20.7115C44.181 22.3666 42.9827 26.7492 40.9238 28.8743C38.5206 31.3503 34.6279 31.9462 31.3111 30.9928C25.6309 29.3576 23.8566 22.115 23.8566 22.115C23.1151 24.0084 23.7705 26.4976 24.2273 27.6099C18.567 28.7817 15.7401 25.8356 14.8662 24.975C14.9589 25.5046 15.1112 26.0276 15.3495 26.5175C16.7993 29.5033 20.8245 30.9068 23.8169 29.4702C24.2406 29.2649 24.7239 29.0067 25.1608 29.1855C25.3793 29.2782 26.2929 32.6281 34.5153 34.3361C39.2555 35.3225 44.8166 31.8469 45.1277 31.8402C45.4852 31.8336 45.803 32.0521 46.1009 32.2507C46.1009 32.2507 48.2988 34.773 53.2178 33.5946C57.8586 32.489 58.3088 29.3378 58.706 29.212C59.0238 29.106 64.4657 30.8141 66.7563 25.6105Z" fill="#78C0E8"/>
<path id="Vector_11" d="M42.5259 1.45288C42.5259 1.45288 43.4064 2.71074 43.5852 3.36615C44.2803 5.92822 42.9695 7.62964 42.5921 8.32478C42.3935 8.69552 42.2148 9.12584 42.3538 9.51644C42.5061 9.94014 42.9695 10.1652 43.4064 10.2314C44.5848 10.4234 45.8096 9.77463 46.465 8.78158C47.1072 7.78853 48.279 3.8031 42.5259 1.45288Z" fill="#92CBEB"/>
<path id="Vector_12" d="M63.6582 17.1364C64.009 16.2228 64.2275 15.2497 64.2805 14.2434C64.3996 12.0057 63.7111 9.93354 62.4533 8.21887C63.0822 9.36419 63.2411 10.7876 62.9763 12.0851C62.6122 13.8528 61.4801 15.3953 60.1693 16.6333C58.5738 18.1361 59.7058 18.8313 60.6261 18.8313C62.8439 18.8246 63.5324 17.4608 63.6582 17.1364Z" fill="#92CBEB"/>
<path id="Vector_13" d="M44.8033 41.4265V36.9776C44.8033 36.1435 44.0619 35.4682 43.1482 35.4682C42.2346 35.4682 41.4932 36.1435 41.4932 36.9776V41.4265H44.8033Z" fill="#039BE5"/>
<path id="Vector_14" d="M38.2625 41.4264V34.6472C38.2625 34.0977 37.8189 33.6542 37.2694 33.6542C36.7199 33.6542 36.2764 34.0977 36.2764 34.6472V41.4264H38.2625Z" fill="#039BE5"/>
<path id="Vector_15" d="M40.3144 76.5142C50.5097 76.5142 60.043 73.0717 67.0605 66.9148C74.2304 60.5526 78.229 51.7807 78.666 41.4265H1.96289C2.9427 65.5113 22.3138 76.5142 40.3144 76.5142Z" fill="url(#paint1_radial_113_473)"/>
<g id="Group">
<path id="Vector_16" d="M7.09399 59.341C7.1933 59.5065 7.31246 59.6588 7.41839 59.8243C7.35219 59.7117 7.27936 59.5992 7.21316 59.4933C7.17344 59.4403 7.1271 59.394 7.09399 59.341Z" fill="#EB8F00"/>
<path id="Vector_17" d="M77.2099 41.4265C76.3691 50.9134 72.4432 58.977 65.7302 64.9286C58.7127 71.0855 49.1794 74.5281 38.9841 74.5281C27.0874 74.5281 14.5948 69.7085 7.20654 59.4933C7.27275 59.6059 7.33895 59.7184 7.41177 59.8244C7.64348 60.1885 7.8752 60.5394 8.12015 60.8902C8.2989 61.1484 8.47102 61.4066 8.65639 61.6582C9.04699 62.1878 9.45083 62.7042 9.86791 63.2073C10.0665 63.4457 10.2718 63.6708 10.4704 63.9025C10.755 64.2269 11.0463 64.5447 11.3376 64.8558C11.5495 65.0809 11.7613 65.2994 11.9798 65.5178C12.3969 65.9349 12.8272 66.3454 13.2708 66.736C13.4892 66.9346 13.7143 67.12 13.9328 67.312C14.3102 67.6297 14.6875 67.9409 15.0715 68.2454C15.2966 68.4242 15.5283 68.5963 15.76 68.7684C16.1506 69.0597 16.5544 69.3378 16.9583 69.6158C17.1437 69.7416 17.329 69.874 17.5144 69.9998C18.0771 70.3639 18.6465 70.7148 19.2291 71.0458C19.4475 71.1716 19.6726 71.2908 19.8911 71.4099C20.3214 71.6483 20.7583 71.8734 21.1953 72.0984C21.4071 72.2044 21.6256 72.3169 21.8375 72.4162C22.4532 72.7141 23.0755 72.9922 23.711 73.257C23.8765 73.3232 24.042 73.3828 24.2009 73.449C24.7107 73.6542 25.2271 73.8462 25.7501 74.0316C25.9685 74.111 26.1936 74.1838 26.4121 74.2633C26.9881 74.4553 27.5707 74.6407 28.1532 74.8062C28.2592 74.8393 28.3651 74.8724 28.4644 74.8988C29.1463 75.0908 29.8282 75.2563 30.5167 75.4152C30.7219 75.4616 30.9205 75.5013 31.1258 75.5476C31.6753 75.6668 32.2248 75.7661 32.7742 75.8654C32.953 75.8985 33.1251 75.9316 33.2972 75.9581C33.999 76.0706 34.7008 76.1633 35.4025 76.2428C35.5548 76.2626 35.707 76.2692 35.8527 76.2891C36.4287 76.3487 37.0046 76.395 37.5806 76.4281C37.7792 76.4414 37.9778 76.4546 38.1698 76.4612C38.8782 76.4943 39.5932 76.5208 40.3015 76.5208C50.4968 76.5208 60.0301 73.0783 67.0477 66.9214C67.5111 66.5109 67.9613 66.0872 68.3916 65.6635C68.5372 65.5178 68.6829 65.3656 68.8285 65.2133C69.1066 64.9286 69.3913 64.6373 69.6627 64.346C69.8348 64.1607 69.9937 63.9687 70.1592 63.7767C70.3909 63.5119 70.6226 63.2471 70.8477 62.969C71.0199 62.7572 71.1854 62.5387 71.3509 62.3268C71.5561 62.0687 71.7547 61.8105 71.9533 61.539C72.1188 61.3073 72.2843 61.069 72.4432 60.8373C72.622 60.5791 72.8007 60.3209 72.9729 60.0561C73.1317 59.8045 73.2906 59.5529 73.4429 59.3014C73.6018 59.0432 73.7607 58.785 73.9129 58.5202C74.0652 58.2553 74.2109 57.9839 74.3565 57.7191C74.4955 57.4609 74.6346 57.2027 74.767 56.9379C74.9126 56.6599 75.045 56.3752 75.184 56.0839C75.3032 55.8257 75.4224 55.5675 75.5415 55.3027C75.6739 55.0048 75.7997 54.7069 75.9255 54.4023C76.0314 54.1441 76.1307 53.8859 76.23 53.6277C76.3492 53.3166 76.4684 52.9988 76.5743 52.681C76.6604 52.4295 76.7464 52.1713 76.8325 51.9131C76.9384 51.5821 77.0443 51.251 77.1437 50.9134C77.2165 50.6618 77.2827 50.4103 77.3555 50.1521C77.4482 49.8012 77.5409 49.4503 77.6269 49.0994C77.6865 48.8545 77.7395 48.6095 77.7924 48.358C77.8719 47.9872 77.9513 47.6165 78.0242 47.2391C78.0705 47.0074 78.1036 46.7691 78.1433 46.5374C78.2095 46.1401 78.2757 45.7429 78.3287 45.3391C78.3552 45.1272 78.3817 44.9154 78.4015 44.6969C78.4545 44.2666 78.5074 43.8363 78.5472 43.3993C78.5604 43.2338 78.567 43.0683 78.5803 42.9028C78.62 42.4129 78.6465 41.9164 78.673 41.4199H77.2099V41.4265Z" fill="#EB8F00"/>
<path id="Vector_18" d="M77.2099 41.4265C76.3691 50.9134 72.4432 58.977 65.7302 64.9286C58.7127 71.0855 49.1794 74.5281 38.9841 74.5281C27.0874 74.5281 14.5948 69.7085 7.20654 59.4933C7.27275 59.6059 7.33895 59.7184 7.41177 59.8244C7.64348 60.1885 7.8752 60.5394 8.12015 60.8902C8.2989 61.1484 8.47102 61.4066 8.65639 61.6582C9.04699 62.1878 9.45083 62.7042 9.86791 63.2073C10.0665 63.4457 10.2718 63.6708 10.4704 63.9025C10.755 64.2269 11.0463 64.5447 11.3376 64.8558C11.5495 65.0809 11.7613 65.2994 11.9798 65.5178C12.3969 65.9349 12.8272 66.3454 13.2708 66.736C13.4892 66.9346 13.7143 67.12 13.9328 67.312C14.3102 67.6297 14.6875 67.9409 15.0715 68.2454C15.2966 68.4242 15.5283 68.5963 15.76 68.7684C16.1506 69.0597 16.5544 69.3378 16.9583 69.6158C17.1437 69.7416 17.329 69.874 17.5144 69.9998C18.0771 70.3639 18.6465 70.7148 19.2291 71.0458C19.4475 71.1716 19.6726 71.2908 19.8911 71.4099C20.3214 71.6483 20.7583 71.8734 21.1953 72.0984C21.4071 72.2044 21.6256 72.3169 21.8375 72.4162C22.4532 72.7141 23.0755 72.9922 23.711 73.257C23.8765 73.3232 24.042 73.3828 24.2009 73.449C24.7107 73.6542 25.2271 73.8462 25.7501 74.0316C25.9685 74.111 26.1936 74.1838 26.4121 74.2633C26.9881 74.4553 27.5707 74.6407 28.1532 74.8062C28.2592 74.8393 28.3651 74.8724 28.4644 74.8988C29.1463 75.0908 29.8282 75.2563 30.5167 75.4152C30.7219 75.4616 30.9205 75.5013 31.1258 75.5476C31.6753 75.6668 32.2248 75.7661 32.7742 75.8654C32.953 75.8985 33.1251 75.9316 33.2972 75.9581C33.999 76.0706 34.7008 76.1633 35.4025 76.2428C35.5548 76.2626 35.707 76.2692 35.8527 76.2891C36.4287 76.3487 37.0046 76.395 37.5806 76.4281C37.7792 76.4414 37.9778 76.4546 38.1698 76.4612C38.8782 76.4943 39.5932 76.5208 40.3015 76.5208C50.4968 76.5208 60.0301 73.0783 67.0477 66.9214C67.5111 66.5109 67.9613 66.0872 68.3916 65.6635C68.5372 65.5178 68.6829 65.3656 68.8285 65.2133C69.1066 64.9286 69.3913 64.6373 69.6627 64.346C69.8348 64.1607 69.9937 63.9687 70.1592 63.7767C70.3909 63.5119 70.6226 63.2471 70.8477 62.969C71.0199 62.7572 71.1854 62.5387 71.3509 62.3268C71.5561 62.0687 71.7547 61.8105 71.9533 61.539C72.1188 61.3073 72.2843 61.069 72.4432 60.8373C72.622 60.5791 72.8007 60.3209 72.9729 60.0561C73.1317 59.8045 73.2906 59.5529 73.4429 59.3014C73.6018 59.0432 73.7607 58.785 73.9129 58.5202C74.0652 58.2553 74.2109 57.9839 74.3565 57.7191C74.4955 57.4609 74.6346 57.2027 74.767 56.9379C74.9126 56.6599 75.045 56.3752 75.184 56.0839C75.3032 55.8257 75.4224 55.5675 75.5415 55.3027C75.6739 55.0048 75.7997 54.7069 75.9255 54.4023C76.0314 54.1441 76.1307 53.8859 76.23 53.6277C76.3492 53.3166 76.4684 52.9988 76.5743 52.681C76.6604 52.4295 76.7464 52.1713 76.8325 51.9131C76.9384 51.5821 77.0443 51.251 77.1437 50.9134C77.2165 50.6618 77.2827 50.4103 77.3555 50.1521C77.4482 49.8012 77.5409 49.4503 77.6269 49.0994C77.6865 48.8545 77.7395 48.6095 77.7924 48.358C77.8719 47.9872 77.9513 47.6165 78.0242 47.2391C78.0705 47.0074 78.1036 46.7691 78.1433 46.5374C78.2095 46.1401 78.2757 45.7429 78.3287 45.3391C78.3552 45.1272 78.3817 44.9154 78.4015 44.6969C78.4545 44.2666 78.5074 43.8363 78.5472 43.3993C78.5604 43.2338 78.567 43.0683 78.5803 42.9028C78.62 42.4129 78.6465 41.9164 78.673 41.4199H77.2099V41.4265Z" fill="#EB8F00"/>
<path id="Vector_19" d="M78.5735 42.9094C78.6132 42.4195 78.6463 41.923 78.6662 41.4265H78.6595C78.6397 41.923 78.6066 42.4195 78.5735 42.9094Z" fill="#EB8F00"/>
</g>
<path id="Vector_20" d="M78.5735 42.9095C78.6132 42.4196 78.6463 41.923 78.6662 41.4265H78.6595C78.6397 41.923 78.6066 42.4196 78.5735 42.9095Z" fill="url(#paint2_radial_113_473)"/>
<path id="Vector_21" d="M49.7222 67.3384C49.7222 71.0458 45.6242 73.2239 40.5729 73.2239C35.5216 73.2239 31.4236 71.0458 31.4236 67.3384C31.4236 63.631 35.5216 59.5992 40.5729 59.5992C45.6242 59.5992 49.7222 63.631 49.7222 67.3384Z" fill="#422B0D"/>
<path id="Vector_22" d="M25.6705 57.8713C31.3414 57.8713 35.9386 53.2741 35.9386 47.6031C35.9386 41.9322 31.3414 37.335 25.6705 37.335C19.9995 37.335 15.4023 41.9322 15.4023 47.6031C15.4023 53.2741 19.9995 57.8713 25.6705 57.8713Z" fill="white"/>
<path id="Vector_23" d="M25.6704 52.0851C28.1091 52.0851 30.0862 50.0785 30.0862 47.6032C30.0862 45.1279 28.1091 43.1212 25.6704 43.1212C23.2316 43.1212 21.2546 45.1279 21.2546 47.6032C21.2546 50.0785 23.2316 52.0851 25.6704 52.0851Z" fill="#422B0D"/>
<path id="Vector_24" d="M55.462 57.8713C61.1329 57.8713 65.7301 53.2741 65.7301 47.6031C65.7301 41.9322 61.1329 37.335 55.462 37.335C49.791 37.335 45.1938 41.9322 45.1938 47.6031C45.1938 53.2741 49.791 57.8713 55.462 57.8713Z" fill="white"/>
<path id="Vector_25" d="M55.4756 52.1381C57.9143 52.1381 59.8913 50.1315 59.8913 47.6562C59.8913 45.1808 57.9143 43.1742 55.4756 43.1742C53.0368 43.1742 51.0598 45.1808 51.0598 47.6562C51.0598 50.1315 53.0368 52.1381 55.4756 52.1381Z" fill="#422B0D"/>
</g>
<defs>
<linearGradient id="paint0_linear_113_473" x1="40.5778" y1="38.0538" x2="40.5778" y2="42.7731" gradientUnits="userSpaceOnUse">
<stop stop-color="#78C0E8"/>
<stop offset="1" stop-color="#31A0D6"/>
</linearGradient>
<radialGradient id="paint1_radial_113_473" cx="0" cy="0" r="1" gradientUnits="userSpaceOnUse" gradientTransform="translate(40.3144 39.5066) scale(37.7074 37.7074)">
<stop offset="0.5" stop-color="#FDE030"/>
<stop offset="0.9188" stop-color="#F7C02B"/>
<stop offset="1" stop-color="#F4A223"/>
</radialGradient>
<radialGradient id="paint2_radial_113_473" cx="0" cy="0" r="1" gradientUnits="userSpaceOnUse" gradientTransform="translate(40.3147 39.5066) scale(37.7073 37.7074)">
<stop offset="0.5" stop-color="#FDE030"/>
<stop offset="0.9188" stop-color="#F7C02B"/>
<stop offset="1" stop-color="#F4A223"/>
</radialGradient>
</defs>
</svg>
