<svg width="88" height="88" viewBox="0 0 88 88" fill="none" xmlns="http://www.w3.org/2000/svg">
<g id="&#240;&#159;&#166;&#134; emoji &#34;collision&#34;">
<g id="Group">
<path id="Vector" d="M47.3515 4.58484L58.5498 28.0277L83.5268 5.48975L70.7591 37.7556L84.665 34.0016L71.4802 52.7432L83.5198 56.8931L71.2186 62.7397L83.1875 83.2628L60.4303 69.1872L55.5523 84.4152L48.3271 68.1338L27.8252 83.5315L34.0606 65.9634L5.80325 71.6474L26.9556 55.9033L4.66504 39.8552L30.0874 42.0539L6.58091 6.00584L44.3328 30.7425L47.3515 4.58484Z" fill="#FFA000" stroke="#F44336" stroke-width="2.12089" stroke-miterlimit="10"/>
<path id="Vector_2" d="M50.4337 23.1497L57.1782 40.6187L70.5257 25.5533L60.4938 46.5784L72.6607 42.9234L61.3846 54.1288L70.8296 57.2324L61.7805 58.5685L68.9845 68.7771L57.2772 61.2974L54.5836 70.0072L50.4337 60.0461L40.0767 67.9358L44.3327 58.2716L28.0725 61.8206L40.0555 54.553L24.4246 47.038L41.7381 48.6498L27.5211 26.3451L49.3521 41.1065L50.4337 23.1497Z" fill="url(#paint0_radial_113_505)" stroke="#FFEB3B" stroke-width="1.41393" stroke-miterlimit="10"/>
</g>
</g>
<defs>
<radialGradient id="paint0_radial_113_505" cx="0" cy="0" r="1" gradientUnits="userSpaceOnUse" gradientTransform="translate(53.9384 52.1106) scale(18.6393 18.6393)">
<stop stop-color="#FFFDE7"/>
<stop offset="1" stop-color="#FFF176"/>
</radialGradient>
</defs>
</svg>
