<svg width="81" height="77" viewBox="0 0 81 77" fill="none" xmlns="http://www.w3.org/2000/svg">
<g id="&#240;&#159;&#166;&#134; emoji &#34;disguised face&#34;">
<path id="Vector" d="M40.6651 0.197876C20.0383 0.197876 0.937012 13.9269 0.937012 38.4668C0.937012 63.2057 20.0383 76.8021 40.6651 76.8021C61.2919 76.8021 80.3932 63.5373 80.3932 38.4668C80.3268 13.5953 61.2255 0.197876 40.6651 0.197876Z" fill="url(#paint0_radial_113_530)"/>
<path id="Vector_2" d="M21.1391 45.7625C29.5493 45.7625 36.3671 38.9447 36.3671 30.5345C36.3671 22.1243 29.5493 15.3065 21.1391 15.3065C12.7289 15.3065 5.91113 22.1243 5.91113 30.5345C5.91113 38.9447 12.7289 45.7625 21.1391 45.7625Z" fill="#4FC3F7"/>
<path id="Vector_3" d="M60.1577 45.7625C68.5679 45.7625 75.3857 38.9447 75.3857 30.5345C75.3857 22.1243 68.5679 15.3065 60.1577 15.3065C51.7475 15.3065 44.9297 22.1243 44.9297 30.5345C44.9297 38.9447 51.7475 45.7625 60.1577 45.7625Z" fill="#4FC3F7"/>
<g id="Group">
<path id="Vector_4" d="M14.074 19.0303L15.86 17.4555L32.7223 36.5792L30.9363 38.154L14.074 19.0303Z" fill="#E1F5FE"/>
<path id="Vector_5" d="M12.5834 20.347L8.44482 24.2071L25.3044 43.3349L29.443 39.4683L12.5834 20.347Z" fill="#E1F5FE"/>
<path id="Vector_6" d="M54.24 19.026L56.026 17.4512L72.8884 36.5749L71.1023 38.1498L54.24 19.026Z" fill="#E1F5FE"/>
<path id="Vector_7" d="M52.7429 20.347L48.6042 24.2071L65.4638 43.3349L69.6091 39.4683L52.7429 20.347Z" fill="#E1F5FE"/>
</g>
<path id="Vector_8" d="M62.34 53.6418C62.5589 51.9306 61.9553 50.0669 60.9472 48.7139C60.8145 48.5348 60.5293 48.6211 60.5227 48.8399C60.4763 49.9741 60.0717 52.2622 57.6243 53.1112C53.0016 54.7162 50.7134 46.89 44.0213 47.5201C42.5688 47.6594 41.4612 48.3027 40.6587 49.2578C40.652 49.2511 40.6454 49.2445 40.6454 49.2445C40.6388 49.2511 40.6321 49.2578 40.6321 49.2578C39.8296 48.3027 38.722 47.6527 37.2695 47.5201C30.5708 46.89 28.2826 54.7162 23.6665 53.1112C21.2191 52.2622 20.8145 49.9741 20.7681 48.8399C20.7615 48.6211 20.4763 48.5348 20.3436 48.7139C19.3355 50.0669 18.7253 51.9306 18.9508 53.6418C19.3819 56.958 22.5787 57.9396 22.5787 57.9396C21.69 58.7753 20.8344 58.9941 19.8064 58.9145C19.4748 58.888 19.2625 59.286 19.4682 59.5446C21.8757 62.6486 26.2995 63.6236 29.5295 61.6007C29.3372 62.2241 29.0321 62.8078 28.6408 63.2986C28.4816 63.5042 28.5545 63.8093 28.7999 63.9087C32.9253 65.5735 37.2098 64.8107 40.652 61.468C44.0876 64.8107 48.3788 65.5735 52.5041 63.9087C52.7429 63.8093 52.8225 63.5042 52.6633 63.2986C52.272 62.8078 51.9669 62.2241 51.7746 61.6007C54.9979 63.6236 59.4284 62.6486 61.8359 59.5446C62.0415 59.2793 61.8293 58.888 61.4977 58.9145C60.463 58.9941 59.6141 58.7753 58.7253 57.9396C58.7121 57.9396 61.9155 56.958 62.34 53.6418Z" fill="url(#paint1_radial_113_530)"/>
<path id="Vector_9" d="M16.4305 9.29755C17.8631 10.1332 18.586 11.8311 18.586 11.8311C18.586 11.8311 16.5366 10.3123 13.1873 12.5408C11.3965 13.728 11.3302 14.6499 9.20119 15.4193C8.96243 15.5055 8.88947 15.8238 9.08181 15.9963C10.2491 17.0309 11.5623 17.8998 13.0281 18.437C15.4821 19.339 17.9825 18.0192 20.5161 17.9396C23.9119 17.8268 28.3091 18.7885 31.3269 20.4997C32.1825 18.0589 32.1427 15.3198 31.2208 12.9056C30.3851 10.7235 28.8397 8.82665 26.8832 7.55323C26.6311 7.38742 26.3062 7.59302 26.3459 7.89148L26.8765 11.4862C25.3511 9.17153 22.9568 7.77873 20.1645 7.87158C19.0238 7.91138 17.5448 8.13024 16.4371 8.68737C16.1984 8.81338 16.1984 9.15827 16.4305 9.29755Z" fill="url(#paint2_radial_113_530)"/>
<path id="Vector_10" d="M64.8999 9.29755C63.4673 10.1332 62.7444 11.8311 62.7444 11.8311C62.7444 11.8311 64.7938 10.3123 68.1432 12.5408C69.9339 13.728 70.0002 14.6499 72.1292 15.4193C72.368 15.5055 72.4409 15.8238 72.2486 15.9963C71.0813 17.0309 69.7681 17.8998 68.3023 18.437C65.8483 19.339 63.3479 18.0192 60.8143 17.9396C57.4186 17.8268 53.0213 18.7885 50.0035 20.4997C49.148 18.0589 49.1877 15.3198 50.1097 12.9056C50.9453 10.7235 52.4907 8.82665 54.4472 7.55323C54.6993 7.38742 55.0243 7.59302 54.9845 7.89148L54.4539 11.4862C55.9793 9.17153 58.3736 7.77873 61.1659 7.87158C62.3066 7.91138 63.7857 8.13024 64.8933 8.68737C65.132 8.81338 65.132 9.15827 64.8999 9.29755Z" fill="url(#paint3_radial_113_530)"/>
<path id="Vector_11" d="M21.1391 18.8482C27.5792 18.8482 32.8254 24.0878 32.8254 30.5345C32.8254 36.9812 27.5858 42.2208 21.1391 42.2208C14.6924 42.2208 9.45283 36.9812 9.45283 30.5345C9.45283 24.0878 14.6924 18.8482 21.1391 18.8482ZM21.1391 15.3065C12.7292 15.3065 5.91113 22.1246 5.91113 30.5345C5.91113 38.9444 12.7292 45.7625 21.1391 45.7625C29.549 45.7625 36.3671 38.9444 36.3671 30.5345C36.3671 22.1246 29.549 15.3065 21.1391 15.3065Z" fill="#212121"/>
<path id="Vector_12" d="M60.1577 18.8482C66.5977 18.8482 71.844 24.0878 71.844 30.5345C71.844 36.9812 66.6044 42.2208 60.1577 42.2208C53.711 42.2208 48.4714 36.9812 48.4714 30.5345C48.4714 24.0878 53.7176 18.8482 60.1577 18.8482ZM60.1577 15.3065C51.7478 15.3065 44.9297 22.1246 44.9297 30.5345C44.9297 38.9444 51.7478 45.7625 60.1577 45.7625C68.5676 45.7625 75.3857 38.9444 75.3857 30.5345C75.3857 22.1246 68.5676 15.3065 60.1577 15.3065Z" fill="#212121"/>
<path id="Vector_13" d="M74.6031 35.4756C75.2796 33.5456 78.3703 32.5706 79.856 32.2058C80.3269 32.0931 80.6651 31.6686 80.6651 31.1844V29.0952C80.6651 28.5315 80.2274 28.0738 79.6636 28.0473C78.1647 27.9743 75.4255 27.5963 74.6893 25.8453C73.648 23.3914 73.7077 38.0423 74.6031 35.4756Z" fill="url(#paint4_linear_113_530)"/>
<path id="Vector_14" d="M46.2297 24.4394C46.223 24.4394 46.0042 25.3083 44.7904 25.3083C43.6032 25.3083 43.0461 24.3267 40.6651 24.3267C38.2841 24.3267 37.7269 25.3083 36.5397 25.3083C35.326 25.3083 35.1005 24.446 35.1005 24.4394C34.7291 24.2139 34.9347 28.4653 34.9347 28.4653C35.0607 28.8831 35.7704 33.0217 36.1617 33.0748C36.1617 33.0748 37.7866 30.2162 40.6651 30.1831C43.5369 30.2162 45.1685 33.0748 45.1685 33.0748C45.5598 33.0217 46.2695 28.8831 46.3955 28.4653C46.3955 28.4653 46.5944 24.2139 46.2297 24.4394Z" fill="#212121"/>
<path id="Vector_15" d="M6.7273 35.4756C6.05079 33.5456 2.96009 32.5706 1.47444 32.2058C1.00354 32.0931 0.665283 31.6686 0.665283 31.1844V29.0952C0.665283 28.5315 1.10302 28.0738 1.66678 28.0473C3.1657 27.9743 5.90488 27.5963 6.64108 25.8453C7.68236 23.3914 7.62267 38.0423 6.7273 35.4756Z" fill="url(#paint5_linear_113_530)"/>
<path id="Vector_16" d="M46.3491 36.8949C44.8104 31.7548 43.9946 28.7105 40.6784 28.6973C40.6718 28.6973 40.6652 28.6973 40.6585 28.6973C40.6519 28.6973 40.6453 28.6973 40.6386 28.6973C37.3291 28.7039 36.5133 31.7548 34.9679 36.8949C33.1109 43.0763 26.9096 47.5134 30.0069 51.6984C31.1212 53.1973 32.6665 53.1708 33.6083 53.4096C34.5368 53.6484 36.3806 57.9461 40.6386 57.9461H40.6585C40.6585 57.9461 40.6718 57.9461 40.6784 57.9461C44.9364 57.9461 46.7803 53.655 47.7088 53.4096C48.6506 53.1642 50.1959 53.1973 51.3102 51.6984C54.4075 47.5068 48.2062 43.0763 46.3491 36.8949Z" fill="url(#paint6_linear_113_530)"/>
<path id="Vector_17" d="M36.1884 41.4845C37.349 39.0239 37.6541 34.6598 37.6541 34.6598C37.6541 34.6598 36.573 35.8603 34.3711 39.0504C33.9267 39.7004 33.0579 41.0932 32.5472 41.9488C30.5177 45.3777 27.8448 48.7603 30.0202 51.6918C31.1345 53.1907 32.6798 53.1642 33.6216 53.403C33.9068 53.4759 34.2782 53.9269 34.769 54.5172C35.2598 55.1075 33.3165 51.9239 33.6216 49.271C33.9267 46.618 35.0277 43.9452 36.1884 41.4845Z" fill="url(#paint7_radial_113_530)"/>
<path id="Vector_18" d="M45.162 41.4845C44.0014 39.0239 43.6963 34.6598 43.6963 34.6598C43.6963 34.6598 44.7774 35.8603 46.9793 39.0504C47.4237 39.7004 48.2925 41.0932 48.8032 41.9488C50.8327 45.3777 53.5056 48.7603 51.3302 51.6918C50.2159 53.1907 48.6706 53.1642 47.7288 53.403C47.4436 53.4759 47.0722 53.9269 46.5814 54.5172C46.0906 55.1075 48.0339 51.9239 47.7288 49.271C47.4237 46.618 46.3227 43.9452 45.162 41.4845Z" fill="url(#paint8_radial_113_530)"/>
</g>
<defs>
<radialGradient id="paint0_radial_113_530" cx="0" cy="0" r="1" gradientUnits="userSpaceOnUse" gradientTransform="translate(40.6651 38.5) scale(39.0216 39.0216)">
<stop offset="0.5" stop-color="#FDE030"/>
<stop offset="0.9188" stop-color="#F7C02B"/>
<stop offset="1" stop-color="#F4A223"/>
</radialGradient>
<radialGradient id="paint1_radial_113_530" cx="0" cy="0" r="1" gradientUnits="userSpaceOnUse" gradientTransform="translate(40.6469 54.6864) scale(22.432 10.3569)">
<stop offset="0.0323"/>
<stop offset="1" stop-color="#424242"/>
</radialGradient>
<radialGradient id="paint2_radial_113_530" cx="0" cy="0" r="1" gradientUnits="userSpaceOnUse" gradientTransform="translate(23.1576 18.23) rotate(0.358753) scale(14.636 9.93931)">
<stop offset="0.0323"/>
<stop offset="0.9664" stop-color="#424242"/>
</radialGradient>
<radialGradient id="paint3_radial_113_530" cx="0" cy="0" r="1" gradientUnits="userSpaceOnUse" gradientTransform="translate(58.6385 17.9193) rotate(179.641) scale(13.5627 7.04173)">
<stop offset="0.0323"/>
<stop offset="1" stop-color="#424242"/>
</radialGradient>
<linearGradient id="paint4_linear_113_530" x1="73.6038" y1="30.6702" x2="80.3499" y2="30.6702" gradientUnits="userSpaceOnUse">
<stop offset="0.4463" stop-color="#212121"/>
<stop offset="0.7484" stop-color="#323232"/>
<stop offset="0.9664" stop-color="#424242"/>
</linearGradient>
<linearGradient id="paint5_linear_113_530" x1="7.7266" y1="30.6702" x2="0.980454" y2="30.6702" gradientUnits="userSpaceOnUse">
<stop offset="0.4463" stop-color="#212121"/>
<stop offset="0.7484" stop-color="#323232"/>
<stop offset="0.9664" stop-color="#424242"/>
</linearGradient>
<linearGradient id="paint6_linear_113_530" x1="40.6652" y1="9.87007" x2="40.6652" y2="33.7835" gradientUnits="userSpaceOnUse">
<stop offset="0.5" stop-color="#FDE030"/>
<stop offset="1" stop-color="#F7C02B"/>
</linearGradient>
<radialGradient id="paint7_radial_113_530" cx="0" cy="0" r="1" gradientUnits="userSpaceOnUse" gradientTransform="translate(36.9094 51.0029) rotate(15.7959) scale(7.63187 9.0762)">
<stop offset="0.000198287" stop-color="#B36E00"/>
<stop offset="0.7126" stop-color="#C77B00" stop-opacity="0.2874"/>
<stop offset="1" stop-color="#D18100" stop-opacity="0"/>
</radialGradient>
<radialGradient id="paint8_radial_113_530" cx="0" cy="0" r="1" gradientUnits="userSpaceOnUse" gradientTransform="translate(44.4394 51.003) rotate(164.204) scale(7.63187 9.0762)">
<stop offset="0.000198287" stop-color="#B36E00"/>
<stop offset="0.7126" stop-color="#C77B00" stop-opacity="0.2874"/>
<stop offset="1" stop-color="#D18100" stop-opacity="0"/>
</radialGradient>
</defs>
</svg>
