<svg width="364" height="182" viewBox="0 0 364 182" fill="none" xmlns="http://www.w3.org/2000/svg">
<path d="M190.162 8.66414L160.531 54.7105L82.9655 0.627747L130.463 76.4305L93.8595 95.3269L130.463 111.834L93.8595 163.093L155.955 136.378L190.162 181.99L203.889 138.767L266.42 172.65L228.291 119.653L252.694 103.58L228.291 95.3269L300.41 54.7105H203.889L190.162 8.66414Z" fill="#1A120F"/>
<path d="M184.371 48.2543L168.963 72.2425L128.629 44.0677L153.328 83.5577L134.294 93.402L153.328 102.002L134.294 128.705L166.583 114.788L184.371 138.55L191.509 116.032L224.025 133.684L204.198 106.075L216.888 97.7017L204.198 93.402L241.7 72.2425H191.509L184.371 48.2543Z" fill="#1A120F"/>
<path d="M181.537 75.2664L174.425 86.0198L155.809 73.3897L167.209 91.0921L158.424 95.505L167.209 99.36L158.424 111.331L173.327 105.092L181.537 115.744L184.831 105.65L199.838 113.563L190.688 101.186L196.544 97.4325L190.688 95.505L207.996 86.0198H184.831L181.537 75.2664Z" fill="#1A120F"/>
<path d="M188.706 25.4863L164.72 62.8011L101.933 18.9738L140.381 80.4024L110.752 95.7156L140.381 109.093L110.752 150.632L161.016 128.982L188.706 165.945L199.817 130.918L250.434 158.376L219.57 115.429L239.323 102.404L219.57 95.7156L277.947 62.8011H199.817L188.706 25.4863Z" fill="#C90000"/>
<path d="M184.018 57.5692L171.545 77.0086L138.896 54.1764L158.889 86.1782L143.482 94.1557L158.889 101.125L143.482 122.765L169.619 111.486L184.018 130.742L189.795 112.495L216.116 126.799L200.067 104.426L210.339 97.6402L200.067 94.1557L230.423 77.0086H189.795L184.018 57.5692Z" fill="#FFC72E"/>
<path d="M181.723 79.4591L175.967 88.1734L160.898 77.9382L170.125 92.2839L163.014 95.86L170.125 98.984L163.014 108.685L175.078 103.629L181.723 112.261L184.39 104.081L196.538 110.493L189.131 100.464L193.871 97.422L189.131 95.86L203.141 88.1734H184.39L181.723 79.4591Z" fill="#FDF1ED"/>
<path d="M142.583 108.285H121.868L105.547 137.161L124.065 141.555L142.583 108.285Z" fill="#1A120F"/>
<path d="M68.8239 99.8106L74.1596 98.869L76.0429 101.38L73.8458 112.051L69.1377 112.365L68.8239 99.8106Z" fill="#1A120F"/>
<g filter="url(#filter0_d_50_123)">
<mask id="path-5-outside-1_50_123" maskUnits="userSpaceOnUse" x="0" y="90.0532" width="364" height="78" fill="black">
<rect fill="white" y="90.0532" width="364" height="78"/>
<path d="M19.7516 162.679C16.8863 163.261 14.2716 162.395 11.9075 160.081C9.54332 157.768 7.88558 154.268 6.93426 149.584C6.06607 145.309 5.80297 140.982 6.14498 136.603C6.47775 132.178 7.37581 128.089 8.83916 124.335C10.3025 120.581 12.2864 117.408 14.7907 114.815C17.3313 112.168 20.3754 110.485 23.9229 109.764C26.1514 109.312 28.2371 109.788 30.1799 111.193C32.1227 112.598 33.3896 114.756 33.9807 117.667L34.147 118.485C34.1839 118.667 34.2162 118.826 34.244 118.963C34.2717 119.099 34.2812 119.263 34.2727 119.454L25.8207 123.657C25.044 122.631 24.2918 122.191 23.5641 122.339C22.4726 122.561 21.493 123.683 20.6252 125.706C19.8029 127.72 19.0954 130.066 18.5026 132.744C18.1074 134.529 17.7897 136.345 17.5494 138.194C17.3546 140.033 17.2504 141.735 17.2369 143.301C17.2233 144.866 17.3135 146.126 17.5074 147.081C17.7938 148.491 18.2062 149.473 18.7449 150.027C19.1833 150.553 19.7436 150.747 20.4258 150.609C21.108 150.47 21.7938 149.999 22.4831 149.197C23.1633 148.348 23.7428 147.354 24.2218 146.215C24.7463 145.067 25.0207 143.969 25.0449 142.923L33.4593 144.481C32.2652 150.028 30.3666 154.32 27.7635 157.359C25.1965 160.342 22.5259 162.116 19.7516 162.679Z"/>
<path d="M38.3959 158.944C38.7035 152.316 38.945 145.863 39.1204 139.585C39.171 135.77 39.2144 131.91 39.2504 128.004C39.3323 124.09 39.3709 120.348 39.3664 116.777C39.3618 113.206 39.2782 110.024 39.1154 107.231C40.3601 107.079 41.3793 106.988 42.1731 106.955C43.0054 106.87 43.7689 106.795 44.4636 106.732C45.2042 106.661 46.0136 106.579 46.8917 106.486C47.8083 106.34 48.9541 106.158 50.3291 105.939C50.068 109.317 49.8069 112.695 49.5458 116.073C49.3305 119.444 49.1648 122.83 49.0485 126.232L55.7341 124.393C55.7995 122.737 55.8457 121.109 55.8726 119.507C55.9381 117.851 55.9613 116.226 55.9424 114.632C55.9308 113.083 55.9613 111.504 56.0341 109.894C56.1454 108.232 56.2796 106.566 56.4367 104.896C58.0428 104.358 59.6828 103.886 61.3567 103.478C63.0233 103.025 64.4259 102.684 65.5644 102.456C66.6956 102.182 67.2612 102.045 67.2612 102.045C66.9572 103.973 66.7043 106.222 66.5025 108.792C66.3007 111.361 66.1437 114.065 66.0315 116.902C65.9193 119.74 65.8301 122.574 65.7637 125.404C65.69 128.188 65.633 130.782 65.5927 133.185C65.5555 136.199 65.5449 139.231 65.5608 142.283C65.5695 145.29 65.5891 148.364 65.6196 151.508L55.092 154.453C55.1939 153.027 55.2537 151.631 55.2712 150.266C55.3273 148.847 55.3678 147.478 55.3927 146.158C55.5008 143.885 55.5943 141.52 55.6732 139.064C55.7979 136.601 55.8628 134.499 55.8678 132.76L49.2978 134.44C49.2531 135.34 49.2193 136.309 49.1965 137.346C49.2196 138.376 49.2077 139.483 49.1609 140.665C49.1142 141.847 49.0638 143.006 49.0098 144.143C48.9943 145.226 48.9787 146.31 48.9632 147.393C48.9311 148.667 48.876 149.944 48.798 151.226C48.72 152.507 48.665 153.784 48.6328 155.058L38.3959 158.944Z"/>
<path d="M88.6136 151.519C88.6158 150.724 88.6206 149.953 88.6281 149.205C88.6356 148.456 88.6431 147.708 88.6506 146.96L88.6208 143.039C88.5928 142.388 88.5701 141.784 88.5527 141.225C88.5352 140.667 88.5231 140.154 88.5163 139.688L82.4994 140.379L80.8767 150.655C79.8783 150.91 78.6981 151.209 77.3361 151.552C75.9688 151.849 74.6937 152.136 73.5108 152.412C72.7837 152.589 72.0566 152.766 71.3295 152.943C70.6485 153.114 69.9445 153.289 69.2174 153.466L72.6001 134.719C72.9967 132.478 73.4512 129.926 73.9634 127.064C74.4756 124.203 74.9799 121.272 75.4762 118.272C76.0187 115.267 76.5132 112.454 76.9596 109.833C77.4469 107.161 77.8205 104.923 78.0804 103.118C81.1891 102.527 84.3386 101.885 87.529 101.192C90.7654 100.493 93.8964 99.6901 96.922 98.7821C96.988 101.39 97.0937 104.345 97.2391 107.645C97.4253 110.893 97.6247 114.257 97.8374 117.736C98.0962 121.21 98.3266 124.64 98.5287 128.027C98.8018 131.219 99.0651 134.529 99.3186 137.957C99.5668 141.338 99.8256 144.812 100.095 148.378C99.4139 148.55 98.7329 148.721 98.0519 148.893C97.3709 149.065 96.6899 149.236 96.0089 149.408C94.8775 149.725 93.6334 150.078 92.2767 150.467C90.92 150.857 89.699 151.207 88.6136 151.519ZM83.3651 133.272C83.6417 133.24 84.1462 133.159 84.8786 133.028C85.6571 132.892 86.3895 132.761 87.0758 132.636C87.7621 132.51 88.1744 132.44 88.3127 132.424C88.2439 131.824 88.1958 130.592 88.1684 128.727C88.1411 126.861 88.1031 124.904 88.0546 122.854C88.0091 121.644 87.961 120.412 87.9103 119.156C87.9003 117.85 87.8878 116.52 87.8725 115.167L87.5965 109.102L86.5671 109.291L85.6595 115.421L83.3651 133.272Z"/>
<path d="M115.826 149.399C112.771 149.608 110.19 148.599 108.083 146.371C105.977 144.142 104.761 140.644 104.435 135.875C104.254 133.236 104.388 130.435 104.837 127.474C105.285 124.513 105.992 121.58 106.956 118.677C107.92 115.773 109.084 113.065 110.447 110.553C112.635 106.496 115.242 103.131 118.269 100.459C121.296 97.7862 124.569 96.3296 128.088 96.0888C130.866 95.8987 133.045 96.4706 134.624 97.8046C136.247 99.089 137.436 100.822 138.19 103.003C138.941 105.138 139.397 107.386 139.558 109.748C139.935 115.257 139.431 120.455 138.044 125.341C136.7 130.178 134.798 134.332 132.337 137.803C129.883 141.367 127.19 144.156 124.258 146.171C121.369 148.136 118.558 149.212 115.826 149.399ZM118.793 137.683C120.876 137.541 122.658 136.721 124.137 135.224C125.662 133.725 126.908 131.872 127.873 129.666C128.836 127.414 129.514 125.088 129.908 122.688C130.302 120.289 130.434 118.14 130.304 116.242C130.253 115.501 130.13 114.719 129.934 113.895C129.735 113.025 129.382 112.281 128.874 111.665C128.367 111.048 127.627 110.773 126.655 110.84C124.525 110.986 122.657 111.904 121.052 113.596C119.443 115.241 118.141 117.284 117.145 119.724C116.152 122.211 115.457 124.631 115.06 126.984C114.663 129.337 114.529 131.463 114.659 133.361C114.726 134.333 115.143 135.328 115.91 136.346C116.674 137.317 117.635 137.763 118.793 137.683Z"/>
<path d="M152.146 147.427C150.29 147.469 148.423 147.024 146.545 146.092C144.666 145.113 142.844 143.553 141.078 141.411L145.999 131.203C146.529 132.073 147.291 132.892 148.283 133.658C149.322 134.424 150.403 135.026 151.527 135.465C152.651 135.904 153.607 136.114 154.396 136.096C155.602 136.069 156.731 135.672 157.781 134.905C158.878 134.138 159.412 133.128 159.384 131.875C159.347 130.251 158.571 128.783 157.056 127.471C155.54 126.159 153.84 124.875 151.955 123.618C150.116 122.36 148.412 120.936 146.845 119.347C145.322 117.71 144.537 115.825 144.488 113.69C144.434 111.278 145.079 109.035 146.425 106.962C147.769 104.843 149.538 102.992 151.73 101.411C153.921 99.7826 156.26 98.5227 158.747 97.6307C161.279 96.6914 163.681 96.1959 165.955 96.1444C167.579 96.1076 169.093 96.3518 170.497 96.8771C171.901 97.3559 173.034 98.189 173.896 99.3764C174.759 100.564 175.213 102.178 175.26 104.22C175.267 104.544 175.251 104.87 175.212 105.196C175.219 105.52 175.204 105.846 175.164 106.172C175.125 106.497 175.064 106.847 174.979 107.22C174.94 107.546 174.902 107.895 174.864 108.267L164.839 111.419C164.923 111.046 164.984 110.673 165.022 110.301C165.107 109.927 165.145 109.555 165.136 109.184C165.105 107.792 164.827 106.8 164.303 106.209C163.824 105.57 163.19 105.259 162.402 105.277C161.984 105.286 161.386 105.532 160.608 106.014C159.829 106.449 159.123 107.069 158.492 107.872C157.905 108.628 157.623 109.47 157.644 110.398C157.678 111.929 158.334 113.191 159.609 114.183C160.931 115.128 162.438 116.092 164.131 117.075C164.931 117.521 165.829 118.244 166.826 119.242C167.823 120.194 168.688 121.521 169.423 123.222C170.203 124.875 170.624 127.025 170.683 129.669C170.761 133.103 169.971 136.138 168.313 138.775C166.702 141.411 164.475 143.504 161.632 145.054C158.788 146.557 155.626 147.348 152.146 147.427Z"/>
<path d="M188.375 147.142C190.01 140.936 191.57 134.866 193.055 128.932C193.659 126.541 194.27 123.987 194.886 121.271C195.551 118.51 196.217 115.726 196.884 112.919C197.551 110.112 198.165 107.465 198.726 104.979C199.289 102.447 199.747 100.235 200.099 98.3448C201.976 97.8606 203.989 97.4281 206.141 97.0475C208.338 96.6687 210.295 96.5127 212.011 96.5795C214.793 96.6879 216.973 97.3766 218.549 98.6456C220.127 99.8681 221.225 101.49 221.842 103.511C222.46 105.532 222.723 107.725 222.631 110.091C222.53 112.687 221.945 115.173 220.878 117.546C219.858 119.875 218.5 121.959 216.803 123.797C215.152 125.637 213.261 127.072 211.131 128.104C209.047 129.137 206.892 129.611 204.667 129.524L203.901 129.494C203.469 131.057 203.054 132.759 202.657 134.601C202.261 136.443 201.915 138.148 201.622 139.716C201.401 140.636 201.202 141.558 201.027 142.48C200.852 143.402 200.676 144.324 200.501 145.246L188.375 147.142ZM205.577 122.245C206.655 122.008 207.748 121.354 208.858 120.283C209.97 119.165 210.908 117.738 211.672 116.003C212.436 114.268 212.859 112.357 212.941 110.27C213.007 108.554 212.664 107.241 211.91 106.329C211.202 105.419 210.385 104.946 209.457 104.91C208.828 107.95 208.205 110.829 207.588 113.545C206.971 116.261 206.301 119.161 205.577 122.245Z"/>
<path d="M235.523 149.513C235.679 148.734 235.832 147.978 235.984 147.245C236.135 146.512 236.287 145.779 236.438 145.047L237.165 141.194C237.263 140.55 237.357 139.952 237.448 139.401C237.538 138.849 237.625 138.344 237.708 137.885L231.671 137.403L228.098 147.174C227.069 147.232 225.853 147.298 224.451 147.372C223.052 147.4 221.745 147.435 220.532 147.478C219.784 147.512 219.036 147.545 218.289 147.579C217.588 147.616 216.863 147.651 216.115 147.684L223.049 129.941C223.87 127.819 224.808 125.403 225.862 122.693C226.916 119.984 227.976 117.206 229.041 114.357C230.153 111.513 231.18 108.848 232.123 106.363C233.117 103.835 233.915 101.711 234.518 99.9896C237.682 100.009 240.896 99.9866 244.16 99.9212C247.471 99.8596 250.698 99.6749 253.842 99.3671C253.404 101.939 252.938 104.858 252.444 108.125C252.001 111.348 251.548 114.687 251.086 118.142C250.671 121.601 250.235 125.011 249.781 128.374C249.433 131.558 249.054 134.857 248.642 138.269C248.233 141.635 247.818 145.094 247.395 148.645C246.693 148.682 245.992 148.719 245.291 148.756C244.589 148.793 243.888 148.83 243.187 148.867C242.015 148.96 240.727 149.067 239.32 149.187C237.914 149.308 236.648 149.416 235.523 149.513ZM233.89 130.597C234.168 130.619 234.679 130.637 235.423 130.649C236.213 130.666 236.957 130.679 237.654 130.688C238.352 130.697 238.77 130.707 238.909 130.718C238.957 130.117 239.147 128.898 239.48 127.063C239.813 125.227 240.153 123.299 240.5 121.278C240.689 120.082 240.879 118.864 241.072 117.622C241.314 116.338 241.558 115.031 241.804 113.7L242.702 107.696L241.655 107.682L239.583 113.523L233.89 130.597Z"/>
<path d="M250.455 150.971L256.272 133.453C257.235 130.205 258.256 126.871 259.334 123.451C260.412 120.03 261.438 116.65 262.413 113.31C263.434 109.976 264.291 106.832 264.984 103.878C267.712 103.374 270.618 103.126 273.704 103.134C276.795 103.096 279.837 103.262 282.831 103.633C286.331 104.066 288.609 105.12 289.664 106.794C290.766 108.473 291.157 110.603 290.838 113.182C290.547 115.531 289.7 117.834 288.298 120.093C286.902 122.305 285.186 124.267 283.151 125.979C281.167 127.65 279.047 128.908 276.791 129.751C277.392 131.696 278.016 133.831 278.664 136.155C279.363 138.44 280.005 140.624 280.588 142.707C280.906 143.915 281.224 145.124 281.542 146.332C281.906 147.546 282.248 148.757 282.566 149.966L271.395 152.371L269.935 143.772C269.529 141.384 269.158 139.093 268.821 136.901C268.537 134.668 268.403 133.108 268.419 132.221L267.486 132.386C267.257 133.106 266.996 133.892 266.703 134.745C266.463 135.557 266.187 136.458 265.878 137.448C265.568 138.439 265.261 139.406 264.957 140.35C264.659 141.249 264.361 142.147 264.062 143.045L262.006 149.455L250.455 150.971ZM270.403 122.997C271.243 123.008 272.299 122.788 273.571 122.337C274.894 121.847 276.211 121.215 277.523 120.442C278.881 119.675 280.034 118.859 280.983 117.994C281.931 117.13 282.451 116.329 282.543 115.592C282.657 114.671 282.178 114.004 281.107 113.591C280.088 113.137 278.703 112.802 276.953 112.585L275.433 112.397C275.151 112.409 274.895 112.401 274.664 112.372C274.434 112.343 274.204 112.315 273.973 112.286L270.403 122.997Z"/>
<path d="M289.42 156.152C290.34 153.717 291.255 151.304 292.167 148.915C293.132 146.487 294.044 144.098 294.902 141.746C298.078 133.333 300.872 125.234 303.286 117.448C302.797 117.273 302.278 117.14 301.729 117.05C301.187 116.913 300.66 116.826 300.149 116.789C299.035 116.699 297.982 116.384 296.989 115.844C297.095 115.486 297.182 115.1 297.25 114.688C297.326 114.23 297.401 113.772 297.477 113.314C297.56 112.811 297.639 112.33 297.715 111.872C297.798 111.368 297.9 110.891 298.022 110.441C298.151 109.945 298.26 109.422 298.351 108.873C298.449 108.277 298.57 107.686 298.714 107.098C299.89 107.386 301.069 107.651 302.252 107.893C303.435 108.136 304.622 108.355 305.812 108.552C309.201 109.111 312.448 109.529 315.553 109.806C318.705 110.091 321.612 110.289 324.275 110.399L322.907 113.983L321.757 117.109C321.331 118.262 320.97 119.167 320.674 119.823C320.147 119.877 319.625 119.909 319.106 119.917C318.587 119.926 318.072 119.911 317.561 119.874C317.05 119.837 316.512 119.818 315.947 119.819C315.428 119.828 314.91 119.836 314.391 119.845C313.145 123.12 312.089 125.956 311.223 128.353C310.403 130.758 309.621 133.075 308.877 135.304C308.186 137.494 307.389 139.903 306.485 142.529C304.943 147.025 303.482 151.605 302.101 156.269L289.42 156.152Z"/>
<path d="M316.248 159.686L322.185 146.617C322.844 143.389 323.426 140.074 323.931 136.672C324.491 133.234 325.001 129.809 325.461 126.398C325.966 122.996 326.336 120.253 326.572 118.17C326.854 116.096 326.994 115.059 326.994 115.059L338.975 113.1L337.276 121.421C336.738 124.058 336.228 126.441 335.746 128.569C335.319 130.661 334.943 132.502 334.618 134.094C335.524 132.668 336.619 130.902 337.902 128.796C339.23 126.699 340.476 124.656 341.64 122.667C342.355 121.487 343.047 120.302 343.716 119.112C344.44 117.887 345.173 116.615 345.915 115.299L356 119.844C353.256 123.31 350.552 126.808 347.889 130.338C346.306 132.525 344.581 134.825 342.715 137.239C340.903 139.616 339.192 141.848 337.582 143.935C336.026 145.986 334.791 147.628 333.876 148.862C333.407 149.998 332.847 151.234 332.195 152.569C331.589 153.914 330.997 155.19 330.419 156.398C330.088 157.089 329.73 157.797 329.345 158.524C328.969 159.205 328.589 159.909 328.204 160.635L316.248 159.686Z"/>
</mask>
<path d="M19.7516 162.679C16.8863 163.261 14.2716 162.395 11.9075 160.081C9.54332 157.768 7.88558 154.268 6.93426 149.584C6.06607 145.309 5.80297 140.982 6.14498 136.603C6.47775 132.178 7.37581 128.089 8.83916 124.335C10.3025 120.581 12.2864 117.408 14.7907 114.815C17.3313 112.168 20.3754 110.485 23.9229 109.764C26.1514 109.312 28.2371 109.788 30.1799 111.193C32.1227 112.598 33.3896 114.756 33.9807 117.667L34.147 118.485C34.1839 118.667 34.2162 118.826 34.244 118.963C34.2717 119.099 34.2812 119.263 34.2727 119.454L25.8207 123.657C25.044 122.631 24.2918 122.191 23.5641 122.339C22.4726 122.561 21.493 123.683 20.6252 125.706C19.8029 127.72 19.0954 130.066 18.5026 132.744C18.1074 134.529 17.7897 136.345 17.5494 138.194C17.3546 140.033 17.2504 141.735 17.2369 143.301C17.2233 144.866 17.3135 146.126 17.5074 147.081C17.7938 148.491 18.2062 149.473 18.7449 150.027C19.1833 150.553 19.7436 150.747 20.4258 150.609C21.108 150.47 21.7938 149.999 22.4831 149.197C23.1633 148.348 23.7428 147.354 24.2218 146.215C24.7463 145.067 25.0207 143.969 25.0449 142.923L33.4593 144.481C32.2652 150.028 30.3666 154.32 27.7635 157.359C25.1965 160.342 22.5259 162.116 19.7516 162.679Z" fill="#FDF1ED"/>
<path d="M38.3959 158.944C38.7035 152.316 38.945 145.863 39.1204 139.585C39.171 135.77 39.2144 131.91 39.2504 128.004C39.3323 124.09 39.3709 120.348 39.3664 116.777C39.3618 113.206 39.2782 110.024 39.1154 107.231C40.3601 107.079 41.3793 106.988 42.1731 106.955C43.0054 106.87 43.7689 106.795 44.4636 106.732C45.2042 106.661 46.0136 106.579 46.8917 106.486C47.8083 106.34 48.9541 106.158 50.3291 105.939C50.068 109.317 49.8069 112.695 49.5458 116.073C49.3305 119.444 49.1648 122.83 49.0485 126.232L55.7341 124.393C55.7995 122.737 55.8457 121.109 55.8726 119.507C55.9381 117.851 55.9613 116.226 55.9424 114.632C55.9308 113.083 55.9613 111.504 56.0341 109.894C56.1454 108.232 56.2796 106.566 56.4367 104.896C58.0428 104.358 59.6828 103.886 61.3567 103.478C63.0233 103.025 64.4259 102.684 65.5644 102.456C66.6956 102.182 67.2612 102.045 67.2612 102.045C66.9572 103.973 66.7043 106.222 66.5025 108.792C66.3007 111.361 66.1437 114.065 66.0315 116.902C65.9193 119.74 65.8301 122.574 65.7637 125.404C65.69 128.188 65.633 130.782 65.5927 133.185C65.5555 136.199 65.5449 139.231 65.5608 142.283C65.5695 145.29 65.5891 148.364 65.6196 151.508L55.092 154.453C55.1939 153.027 55.2537 151.631 55.2712 150.266C55.3273 148.847 55.3678 147.478 55.3927 146.158C55.5008 143.885 55.5943 141.52 55.6732 139.064C55.7979 136.601 55.8628 134.499 55.8678 132.76L49.2978 134.44C49.2531 135.34 49.2193 136.309 49.1965 137.346C49.2196 138.376 49.2077 139.483 49.1609 140.665C49.1142 141.847 49.0638 143.006 49.0098 144.143C48.9943 145.226 48.9787 146.31 48.9632 147.393C48.9311 148.667 48.876 149.944 48.798 151.226C48.72 152.507 48.665 153.784 48.6328 155.058L38.3959 158.944Z" fill="#FDF1ED"/>
<path d="M88.6136 151.519C88.6158 150.724 88.6206 149.953 88.6281 149.205C88.6356 148.456 88.6431 147.708 88.6506 146.96L88.6208 143.039C88.5928 142.388 88.5701 141.784 88.5527 141.225C88.5352 140.667 88.5231 140.154 88.5163 139.688L82.4994 140.379L80.8767 150.655C79.8783 150.91 78.6981 151.209 77.3361 151.552C75.9688 151.849 74.6937 152.136 73.5108 152.412C72.7837 152.589 72.0566 152.766 71.3295 152.943C70.6485 153.114 69.9445 153.289 69.2174 153.466L72.6001 134.719C72.9967 132.478 73.4512 129.926 73.9634 127.064C74.4756 124.203 74.9799 121.272 75.4762 118.272C76.0187 115.267 76.5132 112.454 76.9596 109.833C77.4469 107.161 77.8205 104.923 78.0804 103.118C81.1891 102.527 84.3386 101.885 87.529 101.192C90.7654 100.493 93.8964 99.6901 96.922 98.7821C96.988 101.39 97.0937 104.345 97.2391 107.645C97.4253 110.893 97.6247 114.257 97.8374 117.736C98.0962 121.21 98.3266 124.64 98.5287 128.027C98.8018 131.219 99.0651 134.529 99.3186 137.957C99.5668 141.338 99.8256 144.812 100.095 148.378C99.4139 148.55 98.7329 148.721 98.0519 148.893C97.3709 149.065 96.6899 149.236 96.0089 149.408C94.8775 149.725 93.6334 150.078 92.2767 150.467C90.92 150.857 89.699 151.207 88.6136 151.519ZM83.3651 133.272C83.6417 133.24 84.1462 133.159 84.8786 133.028C85.6571 132.892 86.3895 132.761 87.0758 132.636C87.7621 132.51 88.1744 132.44 88.3127 132.424C88.2439 131.824 88.1958 130.592 88.1684 128.727C88.1411 126.861 88.1031 124.904 88.0546 122.854C88.0091 121.644 87.961 120.412 87.9103 119.156C87.9003 117.85 87.8878 116.52 87.8725 115.167L87.5965 109.102L86.5671 109.291L85.6595 115.421L83.3651 133.272Z" fill="#FDF1ED"/>
<path d="M115.826 149.399C112.771 149.608 110.19 148.599 108.083 146.371C105.977 144.142 104.761 140.644 104.435 135.875C104.254 133.236 104.388 130.435 104.837 127.474C105.285 124.513 105.992 121.58 106.956 118.677C107.92 115.773 109.084 113.065 110.447 110.553C112.635 106.496 115.242 103.131 118.269 100.459C121.296 97.7862 124.569 96.3296 128.088 96.0888C130.866 95.8987 133.045 96.4706 134.624 97.8046C136.247 99.089 137.436 100.822 138.19 103.003C138.941 105.138 139.397 107.386 139.558 109.748C139.935 115.257 139.431 120.455 138.044 125.341C136.7 130.178 134.798 134.332 132.337 137.803C129.883 141.367 127.19 144.156 124.258 146.171C121.369 148.136 118.558 149.212 115.826 149.399ZM118.793 137.683C120.876 137.541 122.658 136.721 124.137 135.224C125.662 133.725 126.908 131.872 127.873 129.666C128.836 127.414 129.514 125.088 129.908 122.688C130.302 120.289 130.434 118.14 130.304 116.242C130.253 115.501 130.13 114.719 129.934 113.895C129.735 113.025 129.382 112.281 128.874 111.665C128.367 111.048 127.627 110.773 126.655 110.84C124.525 110.986 122.657 111.904 121.052 113.596C119.443 115.241 118.141 117.284 117.145 119.724C116.152 122.211 115.457 124.631 115.06 126.984C114.663 129.337 114.529 131.463 114.659 133.361C114.726 134.333 115.143 135.328 115.91 136.346C116.674 137.317 117.635 137.763 118.793 137.683Z" fill="#FDF1ED"/>
<path d="M152.146 147.427C150.29 147.469 148.423 147.024 146.545 146.092C144.666 145.113 142.844 143.553 141.078 141.411L145.999 131.203C146.529 132.073 147.291 132.892 148.283 133.658C149.322 134.424 150.403 135.026 151.527 135.465C152.651 135.904 153.607 136.114 154.396 136.096C155.602 136.069 156.731 135.672 157.781 134.905C158.878 134.138 159.412 133.128 159.384 131.875C159.347 130.251 158.571 128.783 157.056 127.471C155.54 126.159 153.84 124.875 151.955 123.618C150.116 122.36 148.412 120.936 146.845 119.347C145.322 117.71 144.537 115.825 144.488 113.69C144.434 111.278 145.079 109.035 146.425 106.962C147.769 104.843 149.538 102.992 151.73 101.411C153.921 99.7826 156.26 98.5227 158.747 97.6307C161.279 96.6914 163.681 96.1959 165.955 96.1444C167.579 96.1076 169.093 96.3518 170.497 96.8771C171.901 97.3559 173.034 98.189 173.896 99.3764C174.759 100.564 175.213 102.178 175.26 104.22C175.267 104.544 175.251 104.87 175.212 105.196C175.219 105.52 175.204 105.846 175.164 106.172C175.125 106.497 175.064 106.847 174.979 107.22C174.94 107.546 174.902 107.895 174.864 108.267L164.839 111.419C164.923 111.046 164.984 110.673 165.022 110.301C165.107 109.927 165.145 109.555 165.136 109.184C165.105 107.792 164.827 106.8 164.303 106.209C163.824 105.57 163.19 105.259 162.402 105.277C161.984 105.286 161.386 105.532 160.608 106.014C159.829 106.449 159.123 107.069 158.492 107.872C157.905 108.628 157.623 109.47 157.644 110.398C157.678 111.929 158.334 113.191 159.609 114.183C160.931 115.128 162.438 116.092 164.131 117.075C164.931 117.521 165.829 118.244 166.826 119.242C167.823 120.194 168.688 121.521 169.423 123.222C170.203 124.875 170.624 127.025 170.683 129.669C170.761 133.103 169.971 136.138 168.313 138.775C166.702 141.411 164.475 143.504 161.632 145.054C158.788 146.557 155.626 147.348 152.146 147.427Z" fill="#FDF1ED"/>
<path d="M188.375 147.142C190.01 140.936 191.57 134.866 193.055 128.932C193.659 126.541 194.27 123.987 194.886 121.271C195.551 118.51 196.217 115.726 196.884 112.919C197.551 110.112 198.165 107.465 198.726 104.979C199.289 102.447 199.747 100.235 200.099 98.3448C201.976 97.8606 203.989 97.4281 206.141 97.0475C208.338 96.6687 210.295 96.5127 212.011 96.5795C214.793 96.6879 216.973 97.3766 218.549 98.6456C220.127 99.8681 221.225 101.49 221.842 103.511C222.46 105.532 222.723 107.725 222.631 110.091C222.53 112.687 221.945 115.173 220.878 117.546C219.858 119.875 218.5 121.959 216.803 123.797C215.152 125.637 213.261 127.072 211.131 128.104C209.047 129.137 206.892 129.611 204.667 129.524L203.901 129.494C203.469 131.057 203.054 132.759 202.657 134.601C202.261 136.443 201.915 138.148 201.622 139.716C201.401 140.636 201.202 141.558 201.027 142.48C200.852 143.402 200.676 144.324 200.501 145.246L188.375 147.142ZM205.577 122.245C206.655 122.008 207.748 121.354 208.858 120.283C209.97 119.165 210.908 117.738 211.672 116.003C212.436 114.268 212.859 112.357 212.941 110.27C213.007 108.554 212.664 107.241 211.91 106.329C211.202 105.419 210.385 104.946 209.457 104.91C208.828 107.95 208.205 110.829 207.588 113.545C206.971 116.261 206.301 119.161 205.577 122.245Z" fill="#FDF1ED"/>
<path d="M235.523 149.513C235.679 148.734 235.832 147.978 235.984 147.245C236.135 146.512 236.287 145.779 236.438 145.047L237.165 141.194C237.263 140.55 237.357 139.952 237.448 139.401C237.538 138.849 237.625 138.344 237.708 137.885L231.671 137.403L228.098 147.174C227.069 147.232 225.853 147.298 224.451 147.372C223.052 147.4 221.745 147.435 220.532 147.478C219.784 147.512 219.036 147.545 218.289 147.579C217.588 147.616 216.863 147.651 216.115 147.684L223.049 129.941C223.87 127.819 224.808 125.403 225.862 122.693C226.916 119.984 227.976 117.206 229.041 114.357C230.153 111.513 231.18 108.848 232.123 106.363C233.117 103.835 233.915 101.711 234.518 99.9896C237.682 100.009 240.896 99.9866 244.16 99.9212C247.471 99.8596 250.698 99.6749 253.842 99.3671C253.404 101.939 252.938 104.858 252.444 108.125C252.001 111.348 251.548 114.687 251.086 118.142C250.671 121.601 250.235 125.011 249.781 128.374C249.433 131.558 249.054 134.857 248.642 138.269C248.233 141.635 247.818 145.094 247.395 148.645C246.693 148.682 245.992 148.719 245.291 148.756C244.589 148.793 243.888 148.83 243.187 148.867C242.015 148.96 240.727 149.067 239.32 149.187C237.914 149.308 236.648 149.416 235.523 149.513ZM233.89 130.597C234.168 130.619 234.679 130.637 235.423 130.649C236.213 130.666 236.957 130.679 237.654 130.688C238.352 130.697 238.77 130.707 238.909 130.718C238.957 130.117 239.147 128.898 239.48 127.063C239.813 125.227 240.153 123.299 240.5 121.278C240.689 120.082 240.879 118.864 241.072 117.622C241.314 116.338 241.558 115.031 241.804 113.7L242.702 107.696L241.655 107.682L239.583 113.523L233.89 130.597Z" fill="#FDF1ED"/>
<path d="M250.455 150.971L256.272 133.453C257.235 130.205 258.256 126.871 259.334 123.451C260.412 120.03 261.438 116.65 262.413 113.31C263.434 109.976 264.291 106.832 264.984 103.878C267.712 103.374 270.618 103.126 273.704 103.134C276.795 103.096 279.837 103.262 282.831 103.633C286.331 104.066 288.609 105.12 289.664 106.794C290.766 108.473 291.157 110.603 290.838 113.182C290.547 115.531 289.7 117.834 288.298 120.093C286.902 122.305 285.186 124.267 283.151 125.979C281.167 127.65 279.047 128.908 276.791 129.751C277.392 131.696 278.016 133.831 278.664 136.155C279.363 138.44 280.005 140.624 280.588 142.707C280.906 143.915 281.224 145.124 281.542 146.332C281.906 147.546 282.248 148.757 282.566 149.966L271.395 152.371L269.935 143.772C269.529 141.384 269.158 139.093 268.821 136.901C268.537 134.668 268.403 133.108 268.419 132.221L267.486 132.386C267.257 133.106 266.996 133.892 266.703 134.745C266.463 135.557 266.187 136.458 265.878 137.448C265.568 138.439 265.261 139.406 264.957 140.35C264.659 141.249 264.361 142.147 264.062 143.045L262.006 149.455L250.455 150.971ZM270.403 122.997C271.243 123.008 272.299 122.788 273.571 122.337C274.894 121.847 276.211 121.215 277.523 120.442C278.881 119.675 280.034 118.859 280.983 117.994C281.931 117.13 282.451 116.329 282.543 115.592C282.657 114.671 282.178 114.004 281.107 113.591C280.088 113.137 278.703 112.802 276.953 112.585L275.433 112.397C275.151 112.409 274.895 112.401 274.664 112.372C274.434 112.343 274.204 112.315 273.973 112.286L270.403 122.997Z" fill="#FDF1ED"/>
<path d="M289.42 156.152C290.34 153.717 291.255 151.304 292.167 148.915C293.132 146.487 294.044 144.098 294.902 141.746C298.078 133.333 300.872 125.234 303.286 117.448C302.797 117.273 302.278 117.14 301.729 117.05C301.187 116.913 300.66 116.826 300.149 116.789C299.035 116.699 297.982 116.384 296.989 115.844C297.095 115.486 297.182 115.1 297.25 114.688C297.326 114.23 297.401 113.772 297.477 113.314C297.56 112.811 297.639 112.33 297.715 111.872C297.798 111.368 297.9 110.891 298.022 110.441C298.151 109.945 298.26 109.422 298.351 108.873C298.449 108.277 298.57 107.686 298.714 107.098C299.89 107.386 301.069 107.651 302.252 107.893C303.435 108.136 304.622 108.355 305.812 108.552C309.201 109.111 312.448 109.529 315.553 109.806C318.705 110.091 321.612 110.289 324.275 110.399L322.907 113.983L321.757 117.109C321.331 118.262 320.97 119.167 320.674 119.823C320.147 119.877 319.625 119.909 319.106 119.917C318.587 119.926 318.072 119.911 317.561 119.874C317.05 119.837 316.512 119.818 315.947 119.819C315.428 119.828 314.91 119.836 314.391 119.845C313.145 123.12 312.089 125.956 311.223 128.353C310.403 130.758 309.621 133.075 308.877 135.304C308.186 137.494 307.389 139.903 306.485 142.529C304.943 147.025 303.482 151.605 302.101 156.269L289.42 156.152Z" fill="#FDF1ED"/>
<path d="M316.248 159.686L322.185 146.617C322.844 143.389 323.426 140.074 323.931 136.672C324.491 133.234 325.001 129.809 325.461 126.398C325.966 122.996 326.336 120.253 326.572 118.17C326.854 116.096 326.994 115.059 326.994 115.059L338.975 113.1L337.276 121.421C336.738 124.058 336.228 126.441 335.746 128.569C335.319 130.661 334.943 132.502 334.618 134.094C335.524 132.668 336.619 130.902 337.902 128.796C339.23 126.699 340.476 124.656 341.64 122.667C342.355 121.487 343.047 120.302 343.716 119.112C344.44 117.887 345.173 116.615 345.915 115.299L356 119.844C353.256 123.31 350.552 126.808 347.889 130.338C346.306 132.525 344.581 134.825 342.715 137.239C340.903 139.616 339.192 141.848 337.582 143.935C336.026 145.986 334.791 147.628 333.876 148.862C333.407 149.998 332.847 151.234 332.195 152.569C331.589 153.914 330.997 155.19 330.419 156.398C330.088 157.089 329.73 157.797 329.345 158.524C328.969 159.205 328.589 159.909 328.204 160.635L316.248 159.686Z" fill="#FDF1ED"/>
<path d="M19.7516 162.679C16.8863 163.261 14.2716 162.395 11.9075 160.081C9.54332 157.768 7.88558 154.268 6.93426 149.584C6.06607 145.309 5.80297 140.982 6.14498 136.603C6.47775 132.178 7.37581 128.089 8.83916 124.335C10.3025 120.581 12.2864 117.408 14.7907 114.815C17.3313 112.168 20.3754 110.485 23.9229 109.764C26.1514 109.312 28.2371 109.788 30.1799 111.193C32.1227 112.598 33.3896 114.756 33.9807 117.667L34.147 118.485C34.1839 118.667 34.2162 118.826 34.244 118.963C34.2717 119.099 34.2812 119.263 34.2727 119.454L25.8207 123.657C25.044 122.631 24.2918 122.191 23.5641 122.339C22.4726 122.561 21.493 123.683 20.6252 125.706C19.8029 127.72 19.0954 130.066 18.5026 132.744C18.1074 134.529 17.7897 136.345 17.5494 138.194C17.3546 140.033 17.2504 141.735 17.2369 143.301C17.2233 144.866 17.3135 146.126 17.5074 147.081C17.7938 148.491 18.2062 149.473 18.7449 150.027C19.1833 150.553 19.7436 150.747 20.4258 150.609C21.108 150.47 21.7938 149.999 22.4831 149.197C23.1633 148.348 23.7428 147.354 24.2218 146.215C24.7463 145.067 25.0207 143.969 25.0449 142.923L33.4593 144.481C32.2652 150.028 30.3666 154.32 27.7635 157.359C25.1965 160.342 22.5259 162.116 19.7516 162.679Z" stroke="#1A120F" stroke-width="10.0438" mask="url(#path-5-outside-1_50_123)"/>
<path d="M38.3959 158.944C38.7035 152.316 38.945 145.863 39.1204 139.585C39.171 135.77 39.2144 131.91 39.2504 128.004C39.3323 124.09 39.3709 120.348 39.3664 116.777C39.3618 113.206 39.2782 110.024 39.1154 107.231C40.3601 107.079 41.3793 106.988 42.1731 106.955C43.0054 106.87 43.7689 106.795 44.4636 106.732C45.2042 106.661 46.0136 106.579 46.8917 106.486C47.8083 106.34 48.9541 106.158 50.3291 105.939C50.068 109.317 49.8069 112.695 49.5458 116.073C49.3305 119.444 49.1648 122.83 49.0485 126.232L55.7341 124.393C55.7995 122.737 55.8457 121.109 55.8726 119.507C55.9381 117.851 55.9613 116.226 55.9424 114.632C55.9308 113.083 55.9613 111.504 56.0341 109.894C56.1454 108.232 56.2796 106.566 56.4367 104.896C58.0428 104.358 59.6828 103.886 61.3567 103.478C63.0233 103.025 64.4259 102.684 65.5644 102.456C66.6956 102.182 67.2612 102.045 67.2612 102.045C66.9572 103.973 66.7043 106.222 66.5025 108.792C66.3007 111.361 66.1437 114.065 66.0315 116.902C65.9193 119.74 65.8301 122.574 65.7637 125.404C65.69 128.188 65.633 130.782 65.5927 133.185C65.5555 136.199 65.5449 139.231 65.5608 142.283C65.5695 145.29 65.5891 148.364 65.6196 151.508L55.092 154.453C55.1939 153.027 55.2537 151.631 55.2712 150.266C55.3273 148.847 55.3678 147.478 55.3927 146.158C55.5008 143.885 55.5943 141.52 55.6732 139.064C55.7979 136.601 55.8628 134.499 55.8678 132.76L49.2978 134.44C49.2531 135.34 49.2193 136.309 49.1965 137.346C49.2196 138.376 49.2077 139.483 49.1609 140.665C49.1142 141.847 49.0638 143.006 49.0098 144.143C48.9943 145.226 48.9787 146.31 48.9632 147.393C48.9311 148.667 48.876 149.944 48.798 151.226C48.72 152.507 48.665 153.784 48.6328 155.058L38.3959 158.944Z" stroke="#1A120F" stroke-width="10.0438" mask="url(#path-5-outside-1_50_123)"/>
<path d="M88.6136 151.519C88.6158 150.724 88.6206 149.953 88.6281 149.205C88.6356 148.456 88.6431 147.708 88.6506 146.96L88.6208 143.039C88.5928 142.388 88.5701 141.784 88.5527 141.225C88.5352 140.667 88.5231 140.154 88.5163 139.688L82.4994 140.379L80.8767 150.655C79.8783 150.91 78.6981 151.209 77.3361 151.552C75.9688 151.849 74.6937 152.136 73.5108 152.412C72.7837 152.589 72.0566 152.766 71.3295 152.943C70.6485 153.114 69.9445 153.289 69.2174 153.466L72.6001 134.719C72.9967 132.478 73.4512 129.926 73.9634 127.064C74.4756 124.203 74.9799 121.272 75.4762 118.272C76.0187 115.267 76.5132 112.454 76.9596 109.833C77.4469 107.161 77.8205 104.923 78.0804 103.118C81.1891 102.527 84.3386 101.885 87.529 101.192C90.7654 100.493 93.8964 99.6901 96.922 98.7821C96.988 101.39 97.0937 104.345 97.2391 107.645C97.4253 110.893 97.6247 114.257 97.8374 117.736C98.0962 121.21 98.3266 124.64 98.5287 128.027C98.8018 131.219 99.0651 134.529 99.3186 137.957C99.5668 141.338 99.8256 144.812 100.095 148.378C99.4139 148.55 98.7329 148.721 98.0519 148.893C97.3709 149.065 96.6899 149.236 96.0089 149.408C94.8775 149.725 93.6334 150.078 92.2767 150.467C90.92 150.857 89.699 151.207 88.6136 151.519ZM83.3651 133.272C83.6417 133.24 84.1462 133.159 84.8786 133.028C85.6571 132.892 86.3895 132.761 87.0758 132.636C87.7621 132.51 88.1744 132.44 88.3127 132.424C88.2439 131.824 88.1958 130.592 88.1684 128.727C88.1411 126.861 88.1031 124.904 88.0546 122.854C88.0091 121.644 87.961 120.412 87.9103 119.156C87.9003 117.85 87.8878 116.52 87.8725 115.167L87.5965 109.102L86.5671 109.291L85.6595 115.421L83.3651 133.272Z" stroke="#1A120F" stroke-width="10.0438" mask="url(#path-5-outside-1_50_123)"/>
<path d="M115.826 149.399C112.771 149.608 110.19 148.599 108.083 146.371C105.977 144.142 104.761 140.644 104.435 135.875C104.254 133.236 104.388 130.435 104.837 127.474C105.285 124.513 105.992 121.58 106.956 118.677C107.92 115.773 109.084 113.065 110.447 110.553C112.635 106.496 115.242 103.131 118.269 100.459C121.296 97.7862 124.569 96.3296 128.088 96.0888C130.866 95.8987 133.045 96.4706 134.624 97.8046C136.247 99.089 137.436 100.822 138.19 103.003C138.941 105.138 139.397 107.386 139.558 109.748C139.935 115.257 139.431 120.455 138.044 125.341C136.7 130.178 134.798 134.332 132.337 137.803C129.883 141.367 127.19 144.156 124.258 146.171C121.369 148.136 118.558 149.212 115.826 149.399ZM118.793 137.683C120.876 137.541 122.658 136.721 124.137 135.224C125.662 133.725 126.908 131.872 127.873 129.666C128.836 127.414 129.514 125.088 129.908 122.688C130.302 120.289 130.434 118.14 130.304 116.242C130.253 115.501 130.13 114.719 129.934 113.895C129.735 113.025 129.382 112.281 128.874 111.665C128.367 111.048 127.627 110.773 126.655 110.84C124.525 110.986 122.657 111.904 121.052 113.596C119.443 115.241 118.141 117.284 117.145 119.724C116.152 122.211 115.457 124.631 115.06 126.984C114.663 129.337 114.529 131.463 114.659 133.361C114.726 134.333 115.143 135.328 115.91 136.346C116.674 137.317 117.635 137.763 118.793 137.683Z" stroke="#1A120F" stroke-width="10.0438" mask="url(#path-5-outside-1_50_123)"/>
<path d="M152.146 147.427C150.29 147.469 148.423 147.024 146.545 146.092C144.666 145.113 142.844 143.553 141.078 141.411L145.999 131.203C146.529 132.073 147.291 132.892 148.283 133.658C149.322 134.424 150.403 135.026 151.527 135.465C152.651 135.904 153.607 136.114 154.396 136.096C155.602 136.069 156.731 135.672 157.781 134.905C158.878 134.138 159.412 133.128 159.384 131.875C159.347 130.251 158.571 128.783 157.056 127.471C155.54 126.159 153.84 124.875 151.955 123.618C150.116 122.36 148.412 120.936 146.845 119.347C145.322 117.71 144.537 115.825 144.488 113.69C144.434 111.278 145.079 109.035 146.425 106.962C147.769 104.843 149.538 102.992 151.73 101.411C153.921 99.7826 156.26 98.5227 158.747 97.6307C161.279 96.6914 163.681 96.1959 165.955 96.1444C167.579 96.1076 169.093 96.3518 170.497 96.8771C171.901 97.3559 173.034 98.189 173.896 99.3764C174.759 100.564 175.213 102.178 175.26 104.22C175.267 104.544 175.251 104.87 175.212 105.196C175.219 105.52 175.204 105.846 175.164 106.172C175.125 106.497 175.064 106.847 174.979 107.22C174.94 107.546 174.902 107.895 174.864 108.267L164.839 111.419C164.923 111.046 164.984 110.673 165.022 110.301C165.107 109.927 165.145 109.555 165.136 109.184C165.105 107.792 164.827 106.8 164.303 106.209C163.824 105.57 163.19 105.259 162.402 105.277C161.984 105.286 161.386 105.532 160.608 106.014C159.829 106.449 159.123 107.069 158.492 107.872C157.905 108.628 157.623 109.47 157.644 110.398C157.678 111.929 158.334 113.191 159.609 114.183C160.931 115.128 162.438 116.092 164.131 117.075C164.931 117.521 165.829 118.244 166.826 119.242C167.823 120.194 168.688 121.521 169.423 123.222C170.203 124.875 170.624 127.025 170.683 129.669C170.761 133.103 169.971 136.138 168.313 138.775C166.702 141.411 164.475 143.504 161.632 145.054C158.788 146.557 155.626 147.348 152.146 147.427Z" stroke="#1A120F" stroke-width="10.0438" mask="url(#path-5-outside-1_50_123)"/>
<path d="M188.375 147.142C190.01 140.936 191.57 134.866 193.055 128.932C193.659 126.541 194.27 123.987 194.886 121.271C195.551 118.51 196.217 115.726 196.884 112.919C197.551 110.112 198.165 107.465 198.726 104.979C199.289 102.447 199.747 100.235 200.099 98.3448C201.976 97.8606 203.989 97.4281 206.141 97.0475C208.338 96.6687 210.295 96.5127 212.011 96.5795C214.793 96.6879 216.973 97.3766 218.549 98.6456C220.127 99.8681 221.225 101.49 221.842 103.511C222.46 105.532 222.723 107.725 222.631 110.091C222.53 112.687 221.945 115.173 220.878 117.546C219.858 119.875 218.5 121.959 216.803 123.797C215.152 125.637 213.261 127.072 211.131 128.104C209.047 129.137 206.892 129.611 204.667 129.524L203.901 129.494C203.469 131.057 203.054 132.759 202.657 134.601C202.261 136.443 201.915 138.148 201.622 139.716C201.401 140.636 201.202 141.558 201.027 142.48C200.852 143.402 200.676 144.324 200.501 145.246L188.375 147.142ZM205.577 122.245C206.655 122.008 207.748 121.354 208.858 120.283C209.97 119.165 210.908 117.738 211.672 116.003C212.436 114.268 212.859 112.357 212.941 110.27C213.007 108.554 212.664 107.241 211.91 106.329C211.202 105.419 210.385 104.946 209.457 104.91C208.828 107.95 208.205 110.829 207.588 113.545C206.971 116.261 206.301 119.161 205.577 122.245Z" stroke="#1A120F" stroke-width="10.0438" mask="url(#path-5-outside-1_50_123)"/>
<path d="M235.523 149.513C235.679 148.734 235.832 147.978 235.984 147.245C236.135 146.512 236.287 145.779 236.438 145.047L237.165 141.194C237.263 140.55 237.357 139.952 237.448 139.401C237.538 138.849 237.625 138.344 237.708 137.885L231.671 137.403L228.098 147.174C227.069 147.232 225.853 147.298 224.451 147.372C223.052 147.4 221.745 147.435 220.532 147.478C219.784 147.512 219.036 147.545 218.289 147.579C217.588 147.616 216.863 147.651 216.115 147.684L223.049 129.941C223.87 127.819 224.808 125.403 225.862 122.693C226.916 119.984 227.976 117.206 229.041 114.357C230.153 111.513 231.18 108.848 232.123 106.363C233.117 103.835 233.915 101.711 234.518 99.9896C237.682 100.009 240.896 99.9866 244.16 99.9212C247.471 99.8596 250.698 99.6749 253.842 99.3671C253.404 101.939 252.938 104.858 252.444 108.125C252.001 111.348 251.548 114.687 251.086 118.142C250.671 121.601 250.235 125.011 249.781 128.374C249.433 131.558 249.054 134.857 248.642 138.269C248.233 141.635 247.818 145.094 247.395 148.645C246.693 148.682 245.992 148.719 245.291 148.756C244.589 148.793 243.888 148.83 243.187 148.867C242.015 148.96 240.727 149.067 239.32 149.187C237.914 149.308 236.648 149.416 235.523 149.513ZM233.89 130.597C234.168 130.619 234.679 130.637 235.423 130.649C236.213 130.666 236.957 130.679 237.654 130.688C238.352 130.697 238.77 130.707 238.909 130.718C238.957 130.117 239.147 128.898 239.48 127.063C239.813 125.227 240.153 123.299 240.5 121.278C240.689 120.082 240.879 118.864 241.072 117.622C241.314 116.338 241.558 115.031 241.804 113.7L242.702 107.696L241.655 107.682L239.583 113.523L233.89 130.597Z" stroke="#1A120F" stroke-width="10.0438" mask="url(#path-5-outside-1_50_123)"/>
<path d="M250.455 150.971L256.272 133.453C257.235 130.205 258.256 126.871 259.334 123.451C260.412 120.03 261.438 116.65 262.413 113.31C263.434 109.976 264.291 106.832 264.984 103.878C267.712 103.374 270.618 103.126 273.704 103.134C276.795 103.096 279.837 103.262 282.831 103.633C286.331 104.066 288.609 105.12 289.664 106.794C290.766 108.473 291.157 110.603 290.838 113.182C290.547 115.531 289.7 117.834 288.298 120.093C286.902 122.305 285.186 124.267 283.151 125.979C281.167 127.65 279.047 128.908 276.791 129.751C277.392 131.696 278.016 133.831 278.664 136.155C279.363 138.44 280.005 140.624 280.588 142.707C280.906 143.915 281.224 145.124 281.542 146.332C281.906 147.546 282.248 148.757 282.566 149.966L271.395 152.371L269.935 143.772C269.529 141.384 269.158 139.093 268.821 136.901C268.537 134.668 268.403 133.108 268.419 132.221L267.486 132.386C267.257 133.106 266.996 133.892 266.703 134.745C266.463 135.557 266.187 136.458 265.878 137.448C265.568 138.439 265.261 139.406 264.957 140.35C264.659 141.249 264.361 142.147 264.062 143.045L262.006 149.455L250.455 150.971ZM270.403 122.997C271.243 123.008 272.299 122.788 273.571 122.337C274.894 121.847 276.211 121.215 277.523 120.442C278.881 119.675 280.034 118.859 280.983 117.994C281.931 117.13 282.451 116.329 282.543 115.592C282.657 114.671 282.178 114.004 281.107 113.591C280.088 113.137 278.703 112.802 276.953 112.585L275.433 112.397C275.151 112.409 274.895 112.401 274.664 112.372C274.434 112.343 274.204 112.315 273.973 112.286L270.403 122.997Z" stroke="#1A120F" stroke-width="10.0438" mask="url(#path-5-outside-1_50_123)"/>
<path d="M289.42 156.152C290.34 153.717 291.255 151.304 292.167 148.915C293.132 146.487 294.044 144.098 294.902 141.746C298.078 133.333 300.872 125.234 303.286 117.448C302.797 117.273 302.278 117.14 301.729 117.05C301.187 116.913 300.66 116.826 300.149 116.789C299.035 116.699 297.982 116.384 296.989 115.844C297.095 115.486 297.182 115.1 297.25 114.688C297.326 114.23 297.401 113.772 297.477 113.314C297.56 112.811 297.639 112.33 297.715 111.872C297.798 111.368 297.9 110.891 298.022 110.441C298.151 109.945 298.26 109.422 298.351 108.873C298.449 108.277 298.57 107.686 298.714 107.098C299.89 107.386 301.069 107.651 302.252 107.893C303.435 108.136 304.622 108.355 305.812 108.552C309.201 109.111 312.448 109.529 315.553 109.806C318.705 110.091 321.612 110.289 324.275 110.399L322.907 113.983L321.757 117.109C321.331 118.262 320.97 119.167 320.674 119.823C320.147 119.877 319.625 119.909 319.106 119.917C318.587 119.926 318.072 119.911 317.561 119.874C317.05 119.837 316.512 119.818 315.947 119.819C315.428 119.828 314.91 119.836 314.391 119.845C313.145 123.12 312.089 125.956 311.223 128.353C310.403 130.758 309.621 133.075 308.877 135.304C308.186 137.494 307.389 139.903 306.485 142.529C304.943 147.025 303.482 151.605 302.101 156.269L289.42 156.152Z" stroke="#1A120F" stroke-width="10.0438" mask="url(#path-5-outside-1_50_123)"/>
<path d="M316.248 159.686L322.185 146.617C322.844 143.389 323.426 140.074 323.931 136.672C324.491 133.234 325.001 129.809 325.461 126.398C325.966 122.996 326.336 120.253 326.572 118.17C326.854 116.096 326.994 115.059 326.994 115.059L338.975 113.1L337.276 121.421C336.738 124.058 336.228 126.441 335.746 128.569C335.319 130.661 334.943 132.502 334.618 134.094C335.524 132.668 336.619 130.902 337.902 128.796C339.23 126.699 340.476 124.656 341.64 122.667C342.355 121.487 343.047 120.302 343.716 119.112C344.44 117.887 345.173 116.615 345.915 115.299L356 119.844C353.256 123.31 350.552 126.808 347.889 130.338C346.306 132.525 344.581 134.825 342.715 137.239C340.903 139.616 339.192 141.848 337.582 143.935C336.026 145.986 334.791 147.628 333.876 148.862C333.407 149.998 332.847 151.234 332.195 152.569C331.589 153.914 330.997 155.19 330.419 156.398C330.088 157.089 329.73 157.797 329.345 158.524C328.969 159.205 328.589 159.909 328.204 160.635L316.248 159.686Z" stroke="#1A120F" stroke-width="10.0438" mask="url(#path-5-outside-1_50_123)"/>
</g>
<defs>
<filter id="filter0_d_50_123" x="0.978027" y="91.0319" width="362.957" height="79.9851" filterUnits="userSpaceOnUse" color-interpolation-filters="sRGB">
<feFlood flood-opacity="0" result="BackgroundImageFix"/>
<feColorMatrix in="SourceAlpha" type="matrix" values="0 0 0 0 0 0 0 0 0 0 0 0 0 0 0 0 0 0 127 0" result="hardAlpha"/>
<feOffset dy="3.1387"/>
<feComposite in2="hardAlpha" operator="out"/>
<feColorMatrix type="matrix" values="0 0 0 0 0.0705882 0 0 0 0 0.0235294 0 0 0 0 0.00784314 0 0 0 1 0"/>
<feBlend mode="normal" in2="BackgroundImageFix" result="effect1_dropShadow_50_123"/>
<feBlend mode="normal" in="SourceGraphic" in2="effect1_dropShadow_50_123" result="shape"/>
</filter>
</defs>
</svg>
