<svg width="347" height="289" viewBox="0 0 347 289" fill="none" xmlns="http://www.w3.org/2000/svg">
<path d="M170.954 12.8021L123.75 86.1548L0.187012 0L75.8519 120.755L17.5413 150.857L75.8519 177.154L17.5413 258.81L116.461 216.252L170.954 288.913L192.82 220.058L292.434 274.034L231.694 189.61L270.568 164.005L231.694 150.857L346.58 86.1548H192.82L170.954 12.8021Z" fill="#1A120F"/>
<path d="M161.728 75.87L137.182 114.084L72.9295 69.2006L112.275 132.109L81.9537 147.791L112.275 161.49L81.9537 204.03L133.392 181.859L161.728 219.712L173.099 183.842L224.898 211.961L193.313 167.979L213.527 154.641L193.313 147.791L253.054 114.084H173.099L161.728 75.87Z" fill="#1A120F"/>
<path d="M157.213 118.901L145.884 136.031L116.229 115.911L134.388 144.111L120.394 151.141L134.388 157.282L120.394 176.352L144.134 166.413L157.213 183.382L162.46 167.302L186.368 179.907L171.79 160.191L181.12 154.212L171.79 151.141L199.363 136.031H162.46L157.213 118.901Z" fill="#1A120F"/>
<path d="M168.633 39.6L130.423 99.0433L30.4031 29.2255L91.6512 127.083L44.4509 151.477L91.6512 172.786L44.4509 238.959L124.523 204.471L168.633 263.353L186.333 207.555L266.967 251.296L217.8 182.881L249.267 162.132L217.8 151.477L310.796 99.0433H186.333L168.633 39.6Z" fill="#C90000"/>
<path d="M161.165 90.7087L141.296 121.676L89.2856 85.304L121.135 136.283L96.5904 148.992L121.135 160.093L96.5904 194.566L138.228 176.599L161.165 207.275L170.369 178.206L212.299 200.994L186.732 165.352L203.095 154.542L186.732 148.992L235.09 121.676H170.369L161.165 90.7087Z" fill="#FFC72E"/>
<path d="M157.51 125.58L148.339 139.462L124.335 123.157L139.034 146.01L127.706 151.707L139.034 156.683L127.706 172.137L146.923 164.083L157.51 177.834L161.758 164.803L181.11 175.018L169.31 159.041L176.862 154.195L169.31 151.707L191.629 139.462H161.758L157.51 125.58Z" fill="white"/>
</svg>
