<svg width="30" height="30" viewBox="0 0 30 30" fill="none" xmlns="http://www.w3.org/2000/svg">
<g id="Paint pot">
<path id="Paint pot_2" opacity="0.98" fill-rule="evenodd" clip-rule="evenodd" d="M1.67639 12.2668L0.57959 10.3022L2.54416 9.20544L17.0683 1.0968L19.0328 0L20.1296 1.96457L21.3133 4.08469C22.4896 3.68479 23.494 3.41747 24.334 3.26634C25.3358 3.08607 26.1945 3.05364 26.8503 3.22937C27.1868 3.31957 27.5335 3.48164 27.8011 3.77004C28.0857 4.07675 28.2173 4.45881 28.2131 4.849C28.2057 5.54334 27.7776 6.18328 27.3194 6.68488C26.6213 7.44901 25.5078 8.26431 24.0695 9.02154L28.82 17.5306C29.9579 19.5689 29.2281 22.1437 27.1898 23.2817L16.1178 29.463C14.0795 30.601 11.5047 29.8711 10.3667 27.8328L1.67639 12.2668ZM21.098 8.31473C18.979 9.14331 16.3184 9.82709 13.2487 10.0936C12.7328 10.1384 12.351 10.5929 12.3958 11.1087C12.4406 11.6245 12.895 12.0064 13.4109 11.9616C16.7735 11.6696 19.6941 10.9032 22.0199 9.96606L25.0102 15.3224H5.95917L3.64096 11.17L18.1651 3.06137L21.098 8.31473ZM23.1552 7.38387C24.4769 6.69236 25.4142 5.99045 25.9351 5.42024C26.0926 5.24782 26.1888 5.113 26.2474 5.01572C25.9601 4.96884 25.4548 4.96978 24.666 5.1117C24.0121 5.22935 23.2083 5.43532 22.2435 5.75091L23.1552 7.38387Z" fill="#FDF1ED"/>
</g>
</svg>
